<svg id="Calque_1" xmlns="http://www.w3.org/2000/svg" version="1.1" viewBox="0 0 540 540">
  <defs>
    <style>
      .st0 {
        fill: #ff6f3c;
      }

      .st1 {
        fill: #9d89e5;
      }
    </style>
  </defs>
  <ellipse class="st1" cx="262.72" cy="404.91" rx="82.43" ry="14.63"/>
  <path class="st0" d="M154.7,299.64c-13.66,0-24.77-11.11-24.77-24.77v-23.22c0-13.2,10.74-23.94,23.94-23.94h.83c8.7,0,15.79,7.08,15.79,15.79v40.36c0,8.7-7.08,15.79-15.79,15.79ZM153.87,235.71c-8.79,0-15.94,7.15-15.94,15.94v23.22c0,9.25,7.52,16.77,16.77,16.77,4.29,0,7.79-3.49,7.79-7.79v-40.36c0-4.29-3.49-7.79-7.79-7.79h-.83Z"/>
  <path class="st0" d="M349.64,303.05v-8c9.25,0,16.78-7.53,16.78-16.78v-32.08h8v32.08c0,13.66-11.12,24.78-24.78,24.78Z"/>
  <path class="st0" d="M342.16,309.49h-7.7c-5.76,0-10.44-4.68-10.44-10.44s4.68-10.44,10.44-10.44h7.7c5.76,0,10.44,4.68,10.44,10.44s-4.68,10.44-10.44,10.44ZM334.46,296.61c-1.35,0-2.44,1.09-2.44,2.44s1.1,2.44,2.44,2.44h7.7c1.35,0,2.44-1.1,2.44-2.44s-1.1-2.44-2.44-2.44h-7.7Z"/>
  <path class="st0" d="M262.67,282.37c-4.19,0-8.17-1.8-10.94-4.95s-4.04-7.33-3.51-11.48l7.93,1.02c-.25,1.9.32,3.73,1.58,5.17,1.26,1.44,3.01,2.23,4.93,2.23s3.66-.77,4.95-2.18c1.29-1.4,1.9-3.22,1.74-5.12l7.97-.7c.36,4.1-1.03,8.19-3.8,11.22-2.78,3.03-6.73,4.77-10.85,4.77Z"/>
  <g>
    <path class="st0" d="M222.05,260c-3.53,0-6.4-2.87-6.4-6.4s2.87-6.4,6.4-6.4,6.4,2.87,6.4,6.4-2.87,6.4-6.4,6.4Z"/>
    <path class="st0" d="M304.93,260c-3.53,0-6.4-2.87-6.4-6.4s2.87-6.4,6.4-6.4,6.4,2.87,6.4,6.4-2.87,6.4-6.4,6.4Z"/>
  </g>
  <rect class="st0" x="295.15" y="233.66" width="30.86" height="8"/>
  <rect class="st0" x="200.11" y="233.88" width="30.74" height="8"/>
  <path class="st0" d="M262.72,338.15c-18.11,0-32.85-14.74-32.85-32.85v-8.32l65.7-10.28v18.6c0,18.11-14.74,32.85-32.85,32.85ZM237.86,303.83v1.47c0,13.7,11.15,24.85,24.85,24.85s24.85-11.15,24.85-24.85v-9.25l-49.7,7.78Z"/>
  <g>
    <path class="st0" d="M263.56,368.75c-14.37,0-34.64-8.87-51.65-22.6-19.91-16.08-32.54-35.92-35.57-55.87-.33-2.18,1.17-4.22,3.35-4.55,2.19-.33,4.22,1.17,4.55,3.36,1.58,10.41,7.93,30.86,32.68,50.85,15.67,12.65,33.97,20.83,46.62,20.83,14.96,0,44.59-15.85,63.18-38.59,1.4-1.71,3.92-1.96,5.63-.57s1.96,3.92.57,5.63c-20.3,24.84-52.26,41.53-69.37,41.53Z"/>
    <g>
      <path class="st0" d="M179.98,240.24l12.81-32.85,27.3,4.38c28.7,4.61,57.95,4.54,86.63-.19l27.46-4.53,13.18,33.19h0v-10.85c0-7.74-.79-15.26-2.27-22.47-8.77-42.77-42-59.88-81.67-59.88h0c-39.67,0-72.9,17.11-81.67,59.88-1.48,7.21-2.27,14.74-2.27,22.47l.5,10.85"/>
      <path class="st0" d="M347.35,244.24c-1.61,0-3.1-.98-3.72-2.52l-11.99-30.2-24.28,4.01c-29.16,4.81-58.74,4.88-87.92.2l-24.11-3.87-11.64,29.84c-.69,1.76-2.51,2.79-4.38,2.49-1.86-.31-3.26-1.88-3.35-3.76l-.5-10.86c0-.06,0-.12,0-.18,0-7.85.79-15.68,2.35-23.28,8.34-40.67,38.73-63.07,85.59-63.07s77.25,22.4,85.59,63.07c1.56,7.6,2.35,15.43,2.35,23.28v10.86c0,1.92-1.36,3.57-3.25,3.93-.25.05-.5.07-.75.07ZM263.42,151.03c-24.7,0-67.64,7.36-77.75,56.68-.76,3.7-1.32,7.46-1.69,11.25l5.08-13.02c.68-1.76,2.5-2.79,4.36-2.5l27.3,4.38c28.33,4.55,57.04,4.48,85.35-.19l27.46-4.53c1.86-.31,3.67.72,4.37,2.47l4.84,12.18c-.36-3.38-.88-6.73-1.56-10.04-10.11-49.32-53.05-56.68-77.75-56.68Z"/>
    </g>
  </g>
  <g>
    <path class="st0" d="M195.26,267.06h-15.25c-1.38,0-2.5-1.12-2.5-2.5s1.12-2.5,2.5-2.5h15.25c1.38,0,2.5,1.12,2.5,2.5s-1.12,2.5-2.5,2.5Z"/>
    <path class="st0" d="M188.5,279.42c-.35,0-.7-.07-1.04-.23l-8.49-3.89c-1.26-.58-1.81-2.06-1.23-3.31.57-1.26,2.06-1.81,3.31-1.23l8.49,3.89c1.26.58,1.81,2.06,1.23,3.31-.42.92-1.33,1.46-2.27,1.46Z"/>
    <path class="st0" d="M179.83,258.02c-1.06,0-2.04-.67-2.38-1.73-.42-1.31.3-2.72,1.61-3.15l8.22-2.65c1.31-.43,2.72.3,3.15,1.61.42,1.31-.3,2.72-1.61,3.15l-8.22,2.65c-.26.08-.51.12-.77.12Z"/>
  </g>
  <g>
    <path class="st0" d="M319.4,303.75h-18.15c-1.38,0-2.5-1.12-2.5-2.5s1.12-2.5,2.5-2.5h18.15c1.38,0,2.5,1.12,2.5,2.5s-1.12,2.5-2.5,2.5Z"/>
    <path class="st0" d="M311.36,316.86c-.35,0-.7-.07-1.04-.23l-10.11-4.63c-1.26-.58-1.81-2.06-1.23-3.31.57-1.26,2.06-1.81,3.31-1.23l10.11,4.63c1.26.58,1.81,2.06,1.23,3.31-.42.92-1.33,1.46-2.27,1.46Z"/>
    <path class="st0" d="M301.23,294.73c-1.06,0-2.04-.67-2.38-1.73-.42-1.31.3-2.72,1.61-3.15l9.08-2.93c1.31-.43,2.72.3,3.15,1.61s-.3,2.72-1.61,3.15l-9.08,2.93c-.25.08-.51.12-.77.12Z"/>
  </g>
  <path class="st0" d="M374.42,254.14h-8v-18.89c0-56.72-46.14-102.86-102.86-102.86s-99.64,42.6-102.7,96.99l-7.99-.45c3.3-58.62,51.92-104.54,110.68-104.54s110.86,49.73,110.86,110.86v18.89Z"/>
  <path class="st0" d="M347.5,274.63c-2.2,0-3.99-1.78-4-3.98l-.15-30.39c-.01-2.21,1.77-4.01,3.98-4.02h.02c2.2,0,3.99,1.78,4,3.98l.15,30.39c.01,2.21-1.77,4.01-3.98,4.02h-.02Z"/>
  <rect class="st0" x="234.76" y="305.29" width="57.14" height="8" transform="translate(-44.38 44.11) rotate(-8.83)"/>
  <path class="st0" d="M280.24,327.15c-7.32-12.34-34.62-11.05-44.52-9.51l-1.23-7.9c1.67-.26,41.08-6.14,52.63,13.33l-6.88,4.08Z"/>
</svg>