<svg id="Calque_1" xmlns="http://www.w3.org/2000/svg" xmlns:xlink="http://www.w3.org/1999/xlink" version="1.1" viewBox="0 0 540 540">
  <defs>
    <style>
      .st0 {
        mask: url(#mask);
      }

      .st1 {
        mask: url(#mask-1);
      }

      .st2 {
        fill: #fff;
      }

      .st3 {
        fill: #e189e5;
      }

      .st4 {
        fill: #fdead2;
      }
    </style>
    <mask id="mask" x="38.99" y="232.33" width="277.07" height="101.35" maskUnits="userSpaceOnUse">
      <g>
        <rect class="st2" x="39.49" y="232.83" width="276.07" height="100.35"/>
        <path d="M315.06,233.33v99.35H39.99v-99.35h275.07M316.06,232.33H38.99v101.35h277.07v-101.35h0Z"/>
      </g>
    </mask>
    <mask id="mask-1" x="152.46" y="267.87" width="289.33" height="320.57" maskUnits="userSpaceOnUse">
      <g>
        <g>
          <rect class="st2" x="152.96" y="268.37" width="288.33" height="319.57"/>
          <path d="M440.79,268.87v318.57H153.46v-318.57h287.33M441.79,267.87H152.46v320.57h289.33v-320.57h0Z"/>
        </g>
        <g>
          <path d="M345.21,487.36c-6.06,0-12.19-.57-18.67-1.16-6.5-.6-13.22-1.22-19.89-1.22s-13.39.62-19.9,1.22c-6.48.6-12.61,1.16-18.67,1.16-10.22,0-23.39-1.44-34.65-12.71-40.37-40.37-40.37-106.06,0-146.43,5.86-5.86,12.52-8.59,20.96-8.59,7.75,0,15.88,2.29,24.49,4.71,9.04,2.55,18.39,5.18,27.76,5.18s18.72-2.63,27.76-5.18c8.61-2.42,16.74-4.71,24.49-4.71,8.44,0,15.1,2.73,20.96,8.59,40.37,40.37,40.37,106.06,0,146.43-11.26,11.26-24.43,12.71-34.65,12.71Z"/>
          <path class="st2" d="M254.4,320.13c7.68,0,15.78,2.28,24.35,4.7,9.08,2.56,18.46,5.2,27.9,5.2s18.82-2.64,27.9-5.2c8.57-2.41,16.67-4.7,24.35-4.7,8.3,0,14.85,2.68,20.61,8.45,40.18,40.18,40.18,105.54,0,145.72-5.85,5.85-15.03,12.56-34.3,12.56-6.04,0-12.15-.56-18.62-1.16-6.51-.6-13.25-1.22-19.94-1.22s-13.43.62-19.94,1.22c-6.47.6-12.58,1.16-18.62,1.16-10.12,0-23.16-1.43-34.3-12.56-40.17-40.18-40.17-105.54,0-145.72,5.76-5.76,12.31-8.45,20.61-8.45M358.9,319.13c-16.1,0-34.18,9.89-52.25,9.89s-36.15-9.89-52.25-9.89c-7.62,0-14.79,2.22-21.32,8.74-40.63,40.63-40.63,106.5,0,147.13,10.32,10.32,22.26,12.85,35,12.85s25.46-2.39,38.56-2.39,26.21,2.39,38.56,2.39,24.69-2.54,35-12.85c40.63-40.63,40.63-106.5,0-147.13-6.52-6.52-13.7-8.74-21.32-8.74h0Z"/>
        </g>
      </g>
    </mask>
  </defs>
  <g class="st0">
    <ellipse class="st3" cx="203.66" cy="280.37" rx="90.84" ry="23.33"/>
  </g>
  <g class="st1">
    <ellipse class="st3" cx="306.65" cy="487.86" rx="90.84" ry="23.33"/>
  </g>
  <path class="st4" d="M260.28,81.13c-5.53,0-10.02-4.5-10.02-10.02s4.5-10.02,10.02-10.02,10.02,4.5,10.02,10.02-4.5,10.02-10.02,10.02ZM260.28,68.08c-1.67,0-3.02,1.36-3.02,3.02s1.36,3.02,3.02,3.02,3.02-1.36,3.02-3.02-1.36-3.02-3.02-3.02Z"/>
  <path class="st4" d="M261.37,169.16h-115.86c-16.69,0-30.27-13.58-30.27-30.27v-62.86c0-16.69,13.58-30.27,30.27-30.27h22.61l.91-4.76c1.36-7.06,7.56-12.19,14.76-12.19h39.29c7.19,0,13.4,5.13,14.76,12.19l.91,4.76h22.61c16.69,0,30.27,13.58,30.27,30.27v62.86c0,16.69-13.58,30.27-30.27,30.27ZM145.51,53.77c-12.28,0-22.27,9.99-22.27,22.27v62.86c0,12.28,9.99,22.27,22.27,22.27h115.86c12.28,0,22.27-9.99,22.27-22.27v-62.86c0-12.28-9.99-22.27-22.27-22.27h-25.92c-1.92,0-3.57-1.36-3.93-3.25l-1.54-8c-.63-3.3-3.54-5.7-6.9-5.7h-39.29c-3.36,0-6.27,2.4-6.9,5.7l-1.54,8c-.36,1.88-2.01,3.25-3.93,3.25h-25.92Z"/>
  <path d="M203.44,147.32c-21.98,0-39.86-17.88-39.86-39.86s17.88-39.86,39.86-39.86,39.86,17.88,39.86,39.86-17.88,39.86-39.86,39.86ZM203.44,74.61c-18.12,0-32.86,14.74-32.86,32.86s14.74,32.86,32.86,32.86,32.86-14.74,32.86-32.86-14.74-32.86-32.86-32.86Z"/>
  <path class="st4" d="M203.44,147.82c-22.25,0-40.36-18.1-40.36-40.36s18.1-40.36,40.36-40.36,40.36,18.1,40.36,40.36-18.1,40.36-40.36,40.36ZM203.44,75.11c-17.84,0-32.36,14.52-32.36,32.36s14.52,32.36,32.36,32.36,32.36-14.52,32.36-32.36-14.52-32.36-32.36-32.36Z"/>
  <path class="st4" d="M345.1,491.84c-6.29,0-12.66-.59-18.97-1.17-6.4-.59-13.02-1.2-19.48-1.2s-13.08.61-19.48,1.2c-19.83,1.83-40.34,3.73-56.91-12.84-42.12-42.12-42.12-110.67,0-152.79,14.88-14.88,32.66-9.87,49.85-5.03,8.75,2.46,17.8,5.01,26.54,5.01s17.79-2.55,26.54-5.01c17.2-4.84,34.97-9.85,49.85,5.03,42.12,42.12,42.12,110.67,0,152.79-11.3,11.3-24.44,14.01-37.95,14.01ZM306.65,481.47c6.83,0,13.64.63,20.22,1.24,19.64,1.81,36.61,3.38,50.52-10.53,39.01-39.01,39.01-102.47,0-141.48-11.56-11.56-25.68-7.59-42.03-2.98-9.27,2.61-18.86,5.31-28.71,5.31s-19.44-2.7-28.71-5.31c-16.35-4.6-30.46-8.58-42.03,2.98-39.01,39.01-39.01,102.47,0,141.48,13.91,13.91,30.88,12.35,50.52,10.53,6.58-.61,13.38-1.24,20.22-1.24Z"/>
  <path class="st4" d="M306.87,333.09c-1.48,0-2.86-.82-3.55-2.16-9.23-17.85-9.17-39.1.16-56.84,9.33-17.75,26.81-29.84,46.74-32.35,1.66-.21,3.28.64,4.05,2.13,9.23,17.85,9.17,39.1-.16,56.84h0c-9.33,17.75-26.81,29.84-46.74,32.35-.17.02-.33.03-.5.03ZM348.41,250.1c-16.17,2.91-30.17,13.11-37.85,27.7-7.67,14.59-8.14,31.92-1.37,46.88,16.16-2.91,30.17-13.11,37.85-27.7h0c7.67-14.59,8.14-31.92,1.37-46.88ZM350.57,298.85h0,0Z"/>
  <g>
    <path class="st4" d="M203.44,297.35c-2.21,0-4-1.79-4-4v-112.5c0-2.21,1.79-4,4-4s4,1.79,4,4v112.5c0,2.21-1.79,4-4,4Z"/>
    <path class="st4" d="M133.24,283.67c-.72,0-1.45-.19-2.1-.6-1.88-1.16-2.46-3.63-1.29-5.51l61.26-98.82c1.16-1.88,3.63-2.46,5.51-1.29,1.88,1.16,2.46,3.63,1.29,5.51l-61.26,98.82c-.76,1.22-2.06,1.89-3.4,1.89Z"/>
    <path class="st4" d="M273.64,283.67c-1.34,0-2.65-.67-3.4-1.89l-61.26-98.82c-1.16-1.88-.59-4.34,1.29-5.51,1.88-1.16,4.34-.59,5.51,1.29l61.26,98.82c1.16,1.88.59,4.34-1.29,5.51-.66.41-1.38.6-2.1.6Z"/>
  </g>
  <path class="st4" d="M228.79,184.85h-50.71c-2.21,0-4-1.79-4-4v-15.69c0-2.21,1.79-4,4-4h50.71c2.21,0,4,1.79,4,4v15.69c0,2.21-1.79,4-4,4ZM182.08,176.85h42.71v-7.69h-42.71v7.69Z"/>
</svg>