<svg id="Calque_1" xmlns="http://www.w3.org/2000/svg" xmlns:xlink="http://www.w3.org/1999/xlink" version="1.1" viewBox="0 0 540 540">
  <defs>
    <style>
      .st0 {
        mask: url(#mask);
      }

      .st1 {
        fill: #f29cf7;
      }

      .st2 {
        fill: #ffff7d;
      }

      .st3 {
        mask: url(#mask-1);
      }

      .st4 {
        fill: #e189e5;
      }

      .st5 {
        clip-path: url(#clippath);
      }
    </style>
    <mask id="mask" x="317.98" y="83.57" width="246.52" height="253.71" maskUnits="userSpaceOnUse">
      <path class="st1" d="M546.02,173.77l-181.43-86.97c-9.08-4.35-18.77-4.08-26.94-.53h0s-.98.43-.98.43c0,0,0,0,0,0l-18.68,8.42,5.9,2.32c-3.67,5.2-5.9,11.59-5.9,18.71v167.76c0,11.47,5.76,21.08,14.14,26.83v5.69h16.54c4.96.29,10.1-.56,15.1-2.78l181.43-80.79c25.35-11.29,25.85-47.08.83-59.08Z"/>
    </mask>
    <clipPath id="clippath">
      <path class="st2" d="M317.98,322.48h0c13.49-6.13.59,14.8,0,0h0Z"/>
    </clipPath>
    <mask id="mask-1" x="317.98" y="118.44" width="246.52" height="244.32" maskUnits="userSpaceOnUse">
      <path class="st1" d="M546.02,208.64l-181.43-86.97c-9.08-4.35-18.77-4.08-26.94-.53h0s-.98.43-.98.43c0,0,0,0,0,0l-18.68,8.42,5.9,2.32c-3.67,5.2-5.9,11.59-5.9,18.71v167.76c0,11.47,5.76,21.08,14.14,26.83v5.69h16.54c4.96.29,10.1-.56,15.1-2.78l181.43-80.79c25.35-11.29,25.85-47.08.83-59.08Z"/>
    </mask>
  </defs>
  <g class="st0">
    <g>
      <path class="st2" d="M317.98,322.48h0c13.49-6.13.59,14.8,0,0h0Z"/>
      <g class="st5">
        <polygon class="st2" points="317.98 330.12 331.47 324.14 331.47 337.29 317.98 337.29 317.98 330.12"/>
        <polygon class="st2" points="317.98 330.09 331.47 324.11 331.47 324.14 317.98 330.12 317.98 330.09"/>
        <polygon class="st2" points="317.98 330.06 331.47 324.08 331.47 324.11 317.98 330.09 317.98 330.06"/>
        <polygon class="st2" points="317.98 330.03 331.47 324.06 331.47 324.08 317.98 330.06 317.98 330.03"/>
        <polygon class="st2" points="317.98 330 331.47 324.03 331.47 324.06 317.98 330.03 317.98 330"/>
        <polygon class="st2" points="317.98 329.98 331.47 324 331.47 324.03 317.98 330 317.98 329.98"/>
        <polygon class="st2" points="317.98 329.95 331.47 323.97 331.47 324 317.98 329.98 317.98 329.95"/>
        <polygon class="st2" points="317.98 329.92 331.47 323.95 331.47 323.97 317.98 329.95 317.98 329.92"/>
        <polygon class="st2" points="317.98 329.89 331.47 323.92 331.47 323.95 317.98 329.92 317.98 329.89"/>
        <polygon class="st2" points="317.98 329.87 331.47 323.89 331.47 323.92 317.98 329.89 317.98 329.87"/>
        <polygon class="st2" points="317.98 329.84 331.47 323.86 331.47 323.89 317.98 329.87 317.98 329.84"/>
        <polygon class="st2" points="317.98 329.81 331.47 323.84 331.47 323.86 317.98 329.84 317.98 329.81"/>
        <polygon class="st2" points="317.98 329.78 331.47 323.81 331.47 323.84 317.98 329.81 317.98 329.78"/>
        <polygon class="st2" points="317.98 329.76 331.47 323.78 331.47 323.81 317.98 329.78 317.98 329.76"/>
        <polygon class="st2" points="317.98 329.73 331.47 323.75 331.47 323.78 317.98 329.76 317.98 329.73"/>
        <polygon class="st2" points="317.98 329.7 331.47 323.73 331.47 323.75 317.98 329.73 317.98 329.7"/>
        <polygon class="st2" points="317.98 329.67 331.47 323.7 331.47 323.73 317.98 329.7 317.98 329.67"/>
        <polygon class="st2" points="317.98 329.65 331.47 323.67 331.47 323.7 317.98 329.67 317.98 329.65"/>
        <polygon class="st2" points="317.98 329.62 331.47 323.64 331.47 323.67 317.98 329.65 317.98 329.62"/>
        <polygon class="st2" points="317.98 329.59 331.47 323.61 331.47 323.64 317.98 329.62 317.98 329.59"/>
        <polygon class="st2" points="317.98 329.56 331.47 323.59 331.47 323.61 317.98 329.59 317.98 329.56"/>
        <polygon class="st2" points="317.98 329.54 331.47 323.56 331.47 323.59 317.98 329.56 317.98 329.54"/>
        <polygon class="st2" points="317.98 329.51 331.47 323.53 331.47 323.56 317.98 329.54 317.98 329.51"/>
        <polygon class="st2" points="317.98 329.48 331.47 323.5 331.47 323.53 317.98 329.51 317.98 329.48"/>
        <polygon class="st2" points="317.98 329.45 331.47 323.48 331.47 323.5 317.98 329.48 317.98 329.45"/>
        <polygon class="st2" points="317.98 329.42 331.47 323.45 331.47 323.48 317.98 329.45 317.98 329.42"/>
        <polygon class="st2" points="317.98 329.4 331.47 323.42 331.47 323.45 317.98 329.42 317.98 329.4"/>
        <polygon class="st2" points="317.98 329.37 331.47 323.39 331.47 323.42 317.98 329.4 317.98 329.37"/>
        <polygon class="st2" points="317.98 329.34 331.47 323.37 331.47 323.39 317.98 329.37 317.98 329.34"/>
        <polygon class="st2" points="317.98 329.31 331.47 323.34 331.47 323.37 317.98 329.34 317.98 329.31"/>
        <polygon class="st2" points="317.98 329.29 331.47 323.31 331.47 323.34 317.98 329.31 317.98 329.29"/>
        <polygon class="st2" points="317.98 329.26 331.47 323.28 331.47 323.31 317.98 329.29 317.98 329.26"/>
        <polygon class="st2" points="317.98 329.23 331.47 323.26 331.47 323.28 317.98 329.26 317.98 329.23"/>
        <polygon class="st2" points="317.98 329.2 331.47 323.23 331.47 323.26 317.98 329.23 317.98 329.2"/>
        <polygon class="st2" points="317.98 329.18 331.47 323.2 331.47 323.23 317.98 329.2 317.98 329.18"/>
        <polygon class="st2" points="317.98 329.15 331.47 323.17 331.47 323.2 317.98 329.18 317.98 329.15"/>
        <polygon class="st2" points="317.98 329.12 331.47 323.15 331.47 323.17 317.98 329.15 317.98 329.12"/>
        <polygon class="st2" points="317.98 329.09 331.47 323.12 331.47 323.15 317.98 329.12 317.98 329.09"/>
        <polygon class="st2" points="317.98 329.07 331.47 323.09 331.47 323.12 317.98 329.09 317.98 329.07"/>
        <polygon class="st2" points="317.98 329.04 331.47 323.06 331.47 323.09 317.98 329.07 317.98 329.04"/>
        <polygon class="st2" points="317.98 329.01 331.47 323.04 331.47 323.06 317.98 329.04 317.98 329.01"/>
        <polygon class="st2" points="317.98 328.98 331.47 323.01 331.47 323.04 317.98 329.01 317.98 328.98"/>
        <polygon class="st2" points="317.98 328.96 331.47 322.98 331.47 323.01 317.98 328.98 317.98 328.96"/>
        <polygon class="st2" points="317.98 328.93 331.47 322.95 331.47 322.98 317.98 328.96 317.98 328.93"/>
        <polygon class="st2" points="317.98 328.9 331.47 322.92 331.47 322.95 317.98 328.93 317.98 328.9"/>
        <polygon class="st2" points="317.98 328.87 331.47 322.9 331.47 322.92 317.98 328.9 317.98 328.87"/>
        <polygon class="st2" points="317.98 328.85 331.47 322.87 331.47 322.9 317.98 328.87 317.98 328.85"/>
        <polygon class="st2" points="317.98 328.82 331.47 322.84 331.47 322.87 317.98 328.85 317.98 328.82"/>
        <polygon class="st2" points="317.98 328.79 331.47 322.81 331.47 322.84 317.98 328.82 317.98 328.79"/>
        <polygon class="st2" points="317.98 328.76 331.47 322.79 331.47 322.81 317.98 328.79 317.98 328.76"/>
        <polygon class="st2" points="317.98 328.73 331.47 322.76 331.47 322.79 317.98 328.76 317.98 328.73"/>
        <polygon class="st2" points="317.98 328.71 331.47 322.73 331.47 322.76 317.98 328.73 317.98 328.71"/>
        <polygon class="st2" points="317.98 328.68 331.47 322.7 331.47 322.73 317.98 328.71 317.98 328.68"/>
        <polygon class="st2" points="317.98 328.65 331.47 322.68 331.47 322.7 317.98 328.68 317.98 328.65"/>
        <polygon class="st2" points="317.98 328.62 331.47 322.65 331.47 322.68 317.98 328.65 317.98 328.62"/>
        <polygon class="st2" points="317.98 328.6 331.47 322.62 331.47 322.65 317.98 328.62 317.98 328.6"/>
        <polygon class="st2" points="317.98 328.57 331.47 322.59 331.47 322.62 317.98 328.6 317.98 328.57"/>
        <polygon class="st2" points="317.98 328.54 331.47 322.57 331.47 322.59 317.98 328.57 317.98 328.54"/>
        <polygon class="st2" points="317.98 328.51 331.47 322.54 331.47 322.57 317.98 328.54 317.98 328.51"/>
        <polygon class="st2" points="317.98 328.49 331.47 322.51 331.47 322.54 317.98 328.51 317.98 328.49"/>
        <polygon class="st2" points="317.98 328.46 331.47 322.48 331.47 322.51 317.98 328.49 317.98 328.46"/>
        <polygon class="st2" points="317.98 328.43 331.47 322.46 331.47 322.48 317.98 328.46 317.98 328.43"/>
        <polygon class="st2" points="317.98 328.4 331.47 322.43 331.47 322.46 317.98 328.43 317.98 328.4"/>
        <polygon class="st2" points="317.98 328.38 331.47 322.4 331.47 322.43 317.98 328.4 317.98 328.38"/>
        <polygon class="st2" points="317.98 328.35 331.47 322.37 331.47 322.4 317.98 328.38 317.98 328.35"/>
        <polygon class="st2" points="317.98 328.32 331.47 322.34 331.47 322.37 317.98 328.35 317.98 328.32"/>
        <polygon class="st2" points="317.98 328.29 331.47 322.32 331.47 322.34 317.98 328.32 317.98 328.29"/>
        <polygon class="st2" points="317.98 328.27 331.47 322.29 331.47 322.32 317.98 328.29 317.98 328.27"/>
        <polygon class="st2" points="317.98 328.24 331.47 322.26 331.47 322.29 317.98 328.27 317.98 328.24"/>
        <polygon class="st2" points="317.98 328.21 331.47 322.23 331.47 322.26 317.98 328.24 317.98 328.21"/>
        <polygon class="st2" points="317.98 328.18 331.47 322.21 331.47 322.23 317.98 328.21 317.98 328.18"/>
        <polygon class="st2" points="317.98 328.15 331.47 322.18 331.47 322.21 317.98 328.18 317.98 328.15"/>
        <polygon class="st2" points="317.98 328.13 331.47 322.15 331.47 322.18 317.98 328.15 317.98 328.13"/>
        <polygon class="st2" points="317.98 328.1 331.47 322.12 331.47 322.15 317.98 328.13 317.98 328.1"/>
        <polygon class="st2" points="317.98 328.07 331.47 322.1 331.47 322.12 317.98 328.1 317.98 328.07"/>
        <polygon class="st2" points="317.98 328.04 331.47 322.07 331.47 322.1 317.98 328.07 317.98 328.04"/>
        <polygon class="st2" points="317.98 328.02 331.47 322.04 331.47 322.07 317.98 328.04 317.98 328.02"/>
        <polygon class="st2" points="317.98 327.99 331.47 322.01 331.47 322.04 317.98 328.02 317.98 327.99"/>
        <polygon class="st2" points="317.98 327.96 331.47 321.99 331.47 322.01 317.98 327.99 317.98 327.96"/>
        <polygon class="st2" points="317.98 327.93 331.47 321.96 331.47 321.99 317.98 327.96 317.98 327.93"/>
        <polygon class="st2" points="317.98 327.91 331.47 321.93 331.47 321.96 317.98 327.93 317.98 327.91"/>
        <polygon class="st2" points="317.98 327.88 331.47 321.9 331.47 321.93 317.98 327.91 317.98 327.88"/>
        <polygon class="st2" points="317.98 327.85 331.47 321.88 331.47 321.9 317.98 327.88 317.98 327.85"/>
        <polygon class="st2" points="317.98 327.82 331.47 321.85 331.47 321.88 317.98 327.85 317.98 327.82"/>
        <polygon class="st2" points="317.98 327.8 331.47 321.82 331.47 321.85 317.98 327.82 317.98 327.8"/>
        <polygon class="st2" points="317.98 327.77 331.47 321.79 331.47 321.82 317.98 327.8 317.98 327.77"/>
        <polygon class="st2" points="317.98 327.74 331.47 321.77 331.47 321.79 317.98 327.77 317.98 327.74"/>
        <polygon class="st2" points="317.98 327.71 331.47 321.74 331.47 321.77 317.98 327.74 317.98 327.71"/>
        <polygon class="st2" points="317.98 327.69 331.47 321.71 331.47 321.74 317.98 327.71 317.98 327.69"/>
        <polygon class="st2" points="317.98 327.66 331.47 321.68 331.47 321.71 317.98 327.69 317.98 327.66"/>
        <polygon class="st2" points="317.98 327.63 331.47 321.65 331.47 321.68 317.98 327.66 317.98 327.63"/>
        <polygon class="st2" points="317.98 327.6 331.47 321.63 331.47 321.65 317.98 327.63 317.98 327.6"/>
        <polygon class="st2" points="317.98 327.57 331.47 321.6 331.47 321.63 317.98 327.6 317.98 327.57"/>
        <polygon class="st2" points="317.98 327.55 331.47 321.57 331.47 321.6 317.98 327.57 317.98 327.55"/>
        <polygon class="st2" points="317.98 327.52 331.47 321.54 331.47 321.57 317.98 327.55 317.98 327.52"/>
        <polygon class="st2" points="317.98 327.49 331.47 321.52 331.47 321.54 317.98 327.52 317.98 327.49"/>
        <polygon class="st2" points="317.98 327.46 331.47 321.49 331.47 321.52 317.98 327.49 317.98 327.46"/>
        <polygon class="st2" points="317.98 327.44 331.47 321.46 331.47 321.49 317.98 327.46 317.98 327.44"/>
        <polygon class="st2" points="331.47 321.46 317.98 327.44 317.98 316.35 331.47 316.35 331.47 321.46"/>
      </g>
    </g>
  </g>
  <g>
    <path class="st2" d="M199.75,354.15h.34c-.11,0-.23,0-.34,0h0Z"/>
    <path class="st2" d="M200.52,354.16c.14,0,.27,0,.41-.01h-.83c.14,0,.28.01.42.01Z"/>
    <path class="st2" d="M412.49,211.43l-181.43-86.97c-9.08-4.35-18.77-4.08-26.94-.53h0s-16.09,7.19-16.09,7.19h.01c-10.9,4.74-19.03,15.51-19.03,28.95v162.52c0,17.9,14.46,31.14,30.76,31.54.11,0,.23,0,.34,0h16.16c4.61.1,9.35-.78,13.98-2.84l181.43-80.79c25.35-11.29,25.85-47.08.83-59.08ZM200.52,347.16c-.43,0-.86-.01-1.28-.03-.94-.05-1.87-.16-2.78-.31-11.59-1.95-20.45-12.06-20.45-24.22v-162.52c0-8.96,4.82-16.82,12-21.11,2.62-1.57,5.56-2.66,8.69-3.16,1.25-.2,2.53-.3,3.84-.3v-7s0,7,0,7h0c2.33,0,4.63.34,6.88,1.01,1.26.38,2.5.85,3.72,1.44l175.76,84.25c8.86,4.24,14.06,12.64,13.92,22.46-.14,9.82-5.58,18.07-14.55,22.06l-169.72,75.58-6.04,2.69c-3.21,1.43-6.57,2.16-9.99,2.16ZM398.9,222.29c-.9-.56-1.83-1.1-2.81-1.58l-48.48-23.24c-1.33-.64-2.23-1.79-2.62-3.11-.34-1.14-.28-2.4.27-3.56,1.19-2.49,4.18-3.54,6.67-2.35l48.54,23.27c9.48,4.72,16.17,12.12,18.9,20.86.82,2.64-.65,5.44-3.28,6.26-.5.15-1,.23-1.49.23-2.13,0-4.1-1.37-4.77-3.51-1.61-5.17-5.53-9.88-10.93-13.27ZM419.78,248.38c-.42,2.51-2.5,4.25-4.92,4.25-.26,0-.53-.02-.8-.06-2.09-.33-4.04-2.08-4.21-4.59-.03-.42-.01-.84.07-1.28.06-.39.17-.75.32-1.1.96-2.36,3.38-3.41,5.48-3.04,1.44.25,2.63,1.12,3.36,2.29.55.87.84,1.91.76,3-.01.18-.03.36-.06.53Z"/>
  </g>
  <path class="st2" d="M336.89,230.21c-.94,0-1.9-.21-2.81-.64l-113.21-54.26c-3.24-1.55-4.6-5.43-3.05-8.67,1.55-3.24,5.44-4.6,8.67-3.05l113.21,54.26c3.24,1.55,4.6,5.43,3.05,8.67-1.12,2.33-3.44,3.69-5.87,3.69Z"/>
  <path class="st2" d="M363,242.71c-.85,0-1.72-.17-2.55-.53l-1.67-.72c-3.3-1.41-4.83-5.23-3.42-8.53s5.23-4.83,8.53-3.42l1.67.72c3.3,1.41,4.83,5.23,3.42,8.53-1.06,2.47-3.46,3.94-5.98,3.94Z"/>
  <ellipse class="st4" cx="246.34" cy="382.55" rx="87.62" ry="13.17"/>
  <g class="st3">
    <path class="st2" d="M317.98,357.35h0c13.49-6.13.59,14.8,0,0h0Z"/>
  </g>
</svg>