<svg id="Calque_1" xmlns="http://www.w3.org/2000/svg" version="1.1" viewBox="0 0 540 540">
  <defs>
    <style>
      .st0 {
        fill: #e2562b;
      }

      .st1 {
        fill: #d8e7ff;
      }
    </style>
  </defs>
  <path class="st1" d="M269.77,358.56c-31.61,0-63.22-.84-94.61-2.51l-39.41-2.1c-15.86-.85-28.91-15.41-30.36-33.87l-.21-2.64c-3.67-46.69-3.67-94.04,0-140.72l.24-3.09c1.45-18.47,14.01-32.7,29.85-33.84l6.48-.47c84.21-6.05,169.6-6.08,253.81-.08l7.6.54c15.76,1.12,28.61,15.83,29.9,34.22l.73,10.46c2.9,41.55,2.9,83.68,0,125.23l-.7,10.04c-1.3,18.66-14.36,33.38-30.37,34.25l-37.06,2c-31.82,1.72-63.87,2.58-95.91,2.58ZM269.23,142.75c-42.4,0-84.79,1.51-126.9,4.54l-6.48.47c-11.68.84-21.33,12.23-22.45,26.49l-.24,3.09c-3.64,46.27-3.64,93.2,0,139.47l.21,2.64c1.14,14.48,10.94,25.88,22.81,26.51l39.41,2.1c62.92,3.36,126.73,3.33,189.66-.07l37.06-2h0c11.99-.65,21.8-12.18,22.82-26.82l.7-10.04c2.88-41.18,2.88-82.94,0-124.11l-.73-10.46c-1.01-14.44-10.68-25.96-22.49-26.8l-7.6-.54c-41.73-2.97-83.76-4.46-125.77-4.46Z"/>
  <path class="st1" d="M239.32,183.52l91.85,47.89c5.24,2.73,5.28,10.22.07,13.01l-91.07,48.67c-4.88,2.61-10.77-.9-10.82-6.43l-.78-96.56c-.04-5.55,5.83-9.14,10.75-6.58Z"/>
  <path class="st1" d="M269.21,330.34c-80.69,0-146.77-3.37-147.43-3.4-2.21-.11-3.9-2-3.79-4.2.11-2.21,2.01-3.91,4.2-3.79.66.03,66.54,3.39,147.02,3.39,70.89,0,145.18-3.36,145.92-3.39,2.22-.11,4.08,1.61,4.18,3.81.1,2.21-1.61,4.08-3.81,4.18-.74.03-75.22,3.4-146.29,3.4Z"/>
  <circle class="st1" cx="328.85" cy="324.64" r="10.54"/>
  <ellipse class="st0" cx="268.41" cy="440.3" rx="105.27" ry="18.68"/>
</svg>