<svg id="Calque_1" xmlns="http://www.w3.org/2000/svg" xmlns:xlink="http://www.w3.org/1999/xlink" version="1.1" viewBox="0 0 540 540">
  <defs>
    <style>
      .st0 {
        mask: url(#mask);
      }

      .st1 {
        fill: #9eb6d8;
      }

      .st2 {
        fill: #fff;
      }

      .st3 {
        stroke: #fff;
        stroke-miterlimit: 10;
      }

      .st4 {
        fill: #334fd7;
      }
    </style>
    <mask id="mask" x="162.83" y="332.21" width="236.48" height="180.94" maskUnits="userSpaceOnUse">
      <g>
        <rect class="st2" x="162.83" y="396.01" width="236.48" height="117.13"/>
        <g>
          <g>
            <path d="M225.65,455.32c-.9,0-1.74-.4-2.32-1.09-.57-.69-.8-1.6-.63-2.48l22-112.61c.27-1.41,1.51-2.42,2.94-2.42h52.37c1.43,0,2.67,1.02,2.94,2.42l22,112.61c.17.88-.06,1.79-.63,2.48-.57.7-1.42,1.09-2.32,1.09h-96.37Z"/>
            <path class="st2" d="M300.01,337.21c1.19,0,2.23.85,2.45,2.02l22,112.61c.14.74-.05,1.49-.52,2.07-.48.58-1.18.91-1.93.91h-96.37c-.75,0-1.45-.33-1.93-.91-.48-.58-.67-1.33-.52-2.07l22-112.61c.23-1.17,1.26-2.02,2.45-2.02h52.37M300.01,336.21h-52.37c-1.67,0-3.11,1.19-3.44,2.83l-22,112.61c-.2,1.03.07,2.09.73,2.9.66.81,1.66,1.28,2.7,1.28h96.37c1.05,0,2.04-.47,2.7-1.28.67-.81.93-1.87.73-2.9l-22-112.61c-.32-1.64-1.76-2.83-3.44-2.83h0Z"/>
          </g>
          <path class="st3" d="M300.01,339.71l22,112.61h-96.37l22-112.61h52.37M300.01,332.71h-52.37c-3.35,0-6.23,2.37-6.87,5.66l-22,112.61c-.4,2.05.14,4.18,1.47,5.79,1.33,1.61,3.31,2.55,5.4,2.55h96.37c2.09,0,4.07-.94,5.4-2.55s1.87-3.74,1.47-5.79l-22-112.61c-.64-3.29-3.52-5.66-6.87-5.66h0Z"/>
        </g>
      </g>
    </mask>
  </defs>
  <g class="st0">
    <ellipse class="st1" cx="272.66" cy="459.32" rx="87.55" ry="13.16"/>
  </g>
  <circle class="st4" cx="119.18" cy="113.7" r="12.1"/>
  <circle class="st4" cx="148.37" cy="113.7" r="12.1"/>
  <circle class="st4" cx="177.57" cy="113.7" r="12.1"/>
  <path class="st4" d="M133.79,208.53l-12.34-12.34c-4.5-4.5-4.5-11.81,0-16.31l12.34-12.34,7.07,7.07-12.34,12.34c-.6.6-.6,1.57,0,2.17l12.34,12.34-7.07,7.07Z"/>
  <path class="st4" d="M403.77,208.53l-7.07-7.07,12.34-12.34c.37-.37.45-.79.45-1.08s-.08-.71-.45-1.08l-12.34-12.34,7.07-7.07,12.34,12.34c2.18,2.18,3.38,5.07,3.38,8.15s-1.2,5.98-3.38,8.15l-12.34,12.34Z"/>
  <path class="st4" d="M233.26,173.35h-6.55c-1.75,0-3.26,1.24-3.59,2.97l-2.36,12.33c-.8,4.05-2.35,5.81-5.28,5.81-2.45,0-3.78-1.17-3.78-3.84,0-.69.11-1.44.27-2.34l2.77-14.34c.06-.3-.17-.58-.48-.58h-8.92c-.23,0-.43.17-.48.39l-2.91,15.01c-.8,4-2.4,5.7-5.17,5.7-2.51,0-3.84-1.17-3.84-3.84,0-.48.06-1.01.15-1.57.04-.25.07-.5.12-.77l.54-2.76c1.24-6.3-3.59-12.17-10.01-12.17h-10.7c-.16,0-.29.11-.32.26l-1.03,5.17c-.23,1.13.64,2.18,1.79,2.18h7.17c2.12,0,3.7,1.93,3.3,4.01l-.7,3.56c-.09.47-.16.94-.21,1.4-.07.58-.11,1.15-.11,1.69,0,6.56,4.53,11.09,12.42,11.09,3.46,0,7.14-1.01,10.18-3.94,2.03,2.61,5.33,3.94,9.27,3.94,8.31,0,13.96-4.1,15.72-13.38l3.07-15.6c.04-.2-.12-.39-.32-.39Z"/>
  <path class="st4" d="M297.26,173.35h-6.55c-1.75,0-3.26,1.24-3.59,2.97l-2.36,12.33c-.8,4.05-2.35,5.81-5.28,5.81-2.45,0-3.78-1.17-3.78-3.84,0-.69.11-1.44.27-2.34l2.77-14.34c.06-.3-.17-.58-.48-.58h-8.92c-.23,0-.43.17-.48.39l-2.91,15.01c-.8,4-2.4,5.7-5.17,5.7-2.51,0-3.84-1.17-3.84-3.84,0-.48.06-1.01.15-1.57.04-.25.07-.5.12-.77l.54-2.76c1.24-6.3-3.59-12.17-10.01-12.17h-10.7c-.16,0-.29.11-.32.26l-1.03,5.17c-.23,1.13.64,2.18,1.79,2.18h7.17c2.12,0,3.7,1.93,3.3,4.01l-.7,3.56c-.09.47-.16.94-.21,1.4-.07.58-.11,1.15-.11,1.69,0,6.56,4.53,11.09,12.42,11.09,3.46,0,7.14-1.01,10.18-3.94,2.03,2.61,5.33,3.94,9.27,3.94,8.31,0,13.96-4.1,15.72-13.38l3.07-15.6c.04-.2-.12-.39-.32-.39Z"/>
  <path class="st4" d="M361.25,173.35h-6.55c-1.75,0-3.26,1.24-3.59,2.97l-2.36,12.33c-.8,4.05-2.35,5.81-5.28,5.81-2.45,0-3.78-1.17-3.78-3.84,0-.69.11-1.44.27-2.34l2.77-14.34c.06-.3-.17-.58-.48-.58h-8.92c-.23,0-.43.17-.48.39l-2.91,15.01c-.8,4-2.4,5.7-5.17,5.7-2.51,0-3.84-1.17-3.84-3.84,0-.48.06-1.01.15-1.57.04-.25.07-.5.12-.77l.54-2.76c1.24-6.3-3.59-12.17-10.01-12.17h-10.7c-.16,0-.29.11-.32.26l-1.03,5.17c-.23,1.13.64,2.18,1.79,2.18h7.17c2.12,0,3.7,1.93,3.3,4.01l-.7,3.56c-.09.47-.16.94-.21,1.4-.07.58-.11,1.15-.11,1.69,0,6.56,4.53,11.09,12.42,11.09,3.46,0,7.14-1.01,10.18-3.94,2.03,2.61,5.33,3.94,9.27,3.94,8.31,0,13.96-4.1,15.72-13.38l3.07-15.6c.04-.2-.12-.39-.32-.39Z"/>
  <path class="st4" d="M435.91,75.53H104.09c-21.52,0-38.97,17.45-38.97,38.97v186.25c0,21.52,17.45,38.97,38.97,38.97h331.81c21.52,0,38.97-17.45,38.97-38.97V114.49c0-21.52-17.45-38.97-38.97-38.97ZM467.87,300.74c0,17.63-14.34,31.97-31.97,31.97H104.09c-17.63,0-31.97-14.34-31.97-31.97V114.49c0-17.63,14.34-31.97,31.97-31.97h331.81c17.63,0,31.97,14.34,31.97,31.97v186.25Z"/>
  <g>
    <path class="st4" d="M417.47,247.78c1.1,0,2-.9,2-2s-.9-2-2-2h-110.73l3.98,4h106.74Z"/>
    <path class="st4" d="M101.07,243.78c-1.1,0-2,.9-2,2s.9,2,2,2h162.5l.34-4H101.07Z"/>
    <path class="st4" d="M419.47,261.04c0-1.1-.9-2-2-2h-95.53l3.98,4h91.54c1.1,0,2-.9,2-2Z"/>
    <path class="st4" d="M101.07,259.04c-1.1,0-2,.9-2,2s.9,2,2,2h161.21l.34-4H101.07Z"/>
    <path class="st4" d="M312.71,278.3h104.75c1.1,0,2-.9,2-2s-.9-2-2-2h-106.97l1.85,3.34.37.66Z"/>
    <path class="st4" d="M101.07,274.3c-1.1,0-2,.9-2,2s.9,2,2,2h159.92l.34-4H101.07Z"/>
    <path class="st4" d="M299.75,293.56h117.72c1.1,0,2-.9,2-2s-.9-2-2-2h-106.91l-3.06,1.13-7.75,2.87Z"/>
    <path class="st4" d="M260.04,289.56H101.07c-1.1,0-2,.9-2,2s.9,2,2,2h158.64l.31-3.73.02-.27Z"/>
    <polygon class="st4" points="274.38 289.56 268.94 293.56 282.49 293.56 281.65 289.56 274.38 289.56"/>
    <path class="st4" d="M417.47,304.82H101.07c-1.1,0-2,.9-2,2s.9,2,2,2h316.4c1.1,0,2-.9,2-2s-.9-2-2-2Z"/>
    <path class="st4" d="M274.73,224.64l40.05,40.2-19.42,1.05,8.97,16.19-13.8,5.1-3.79-18.11-16.8,12.35,4.79-56.8M271.32,215.31l-.76,8.98-4.79,56.8-.77,9.16,7.41-5.45,11.57-8.51,2.46,11.75.99,4.74,4.54-1.68,13.8-5.1,4.56-1.69-2.35-4.25-5.74-10.36,12.76-.69,9.32-.5-6.59-6.61-40.05-40.2-6.36-6.39h0Z"/>
  </g>
  <path class="st4" d="M300.01,339.71l22,112.61h-96.37l22-112.61h52.37M300.01,332.71h-52.37c-3.35,0-6.23,2.37-6.87,5.66l-22,112.61c-.4,2.05.14,4.18,1.47,5.79,1.33,1.61,3.31,2.55,5.4,2.55h96.37c2.09,0,4.07-.94,5.4-2.55s1.87-3.74,1.47-5.79l-22-112.61c-.64-3.29-3.52-5.66-6.87-5.66h0Z"/>
</svg>