<svg id="Calque_1" xmlns="http://www.w3.org/2000/svg" version="1.1" viewBox="0 0 540 540">
  <defs>
    <style>
      .st0 {
        fill: #ff6f3c;
      }

      .st1 {
        fill: #d6a876;
      }

      .st2 {
        opacity: .6;
      }
    </style>
  </defs>
  <g class="st2">
    <ellipse class="st1" cx="266.55" cy="438.43" rx="105.27" ry="18.68"/>
  </g>
  <path class="st0" d="M256.12,280.99c-.94,0-1.77-.66-1.96-1.61l-2.04-10.26c-.67-3.38.13-6.9,2.2-9.66,2.07-2.76,5.23-4.51,8.66-4.81.36-.03.71-.05,1.06-.05h0c3.27,0,6.33,1.29,8.64,3.62,2.3,2.33,3.54,5.43,3.49,8.7l-.15,9.69c-.02.99-.75,1.82-1.74,1.95l-17.91,2.39c-.09.01-.18.02-.27.02ZM264.05,258.61c-.24,0-.48.01-.72.03-2.3.2-4.42,1.37-5.81,3.22-1.39,1.85-1.93,4.21-1.48,6.48l1.67,8.41,14.34-1.92.12-7.96c.03-2.2-.8-4.27-2.34-5.84-1.54-1.57-3.6-2.43-5.79-2.43ZM274.03,276.6h0,0Z"/>
  <path class="st0" d="M149.34,212.54c-.2,0-.41-.02-.62-.05-1.9-.34-3.17-2.16-2.83-4.06,2.04-11.47,6.58-22.05,13.48-31.45,1.15-1.56,3.33-1.89,4.89-.75,1.56,1.15,1.89,3.34.75,4.89-6.27,8.53-10.38,18.12-12.23,28.53-.3,1.7-1.78,2.89-3.44,2.89Z"/>
  <path class="st0" d="M380.23,215.52c-1.72,0-3.23-1.27-3.46-3.03-1.26-9.29-4.33-18.05-9.14-26.05-1-1.66-.46-3.81,1.2-4.8,1.66-1,3.81-.46,4.8,1.2,5.3,8.82,8.69,18.48,10.07,28.72.26,1.92-1.08,3.68-3,3.94-.16.02-.32.03-.47.03Z"/>
  <path class="st0" d="M365.19,244.87c-.38,0-.76-.06-1.13-.19-1.83-.62-2.81-2.61-2.18-4.44,2-5.87,3.02-12.04,3.02-18.33,0-13.62-4.89-26.76-13.78-37-1.27-1.46-1.11-3.67.35-4.94,1.46-1.27,3.67-1.11,4.94.35,9.99,11.51,15.49,26.28,15.49,41.59,0,7.06-1.14,13.99-3.4,20.6-.5,1.45-1.86,2.37-3.31,2.37ZM161.39,234.59c-1.7,0-3.19-1.24-3.46-2.97-.49-3.19-.73-6.46-.73-9.71,0-16.97,6.61-32.93,18.61-44.94,1.37-1.37,3.58-1.37,4.95,0,1.37,1.37,1.37,3.58,0,4.95-10.68,10.68-16.56,24.88-16.56,39.99,0,2.9.22,5.82.65,8.66.29,1.91-1.02,3.7-2.93,3.99-.18.03-.36.04-.53.04Z"/>
  <circle class="st0" cx="259.34" cy="104.84" r="5.45"/>
  <path class="st0" d="M263.93,249.79c8.89,0,16.36,7.1,16.59,16.2l1.22,47.72,6.58-1.54c.57-.13,1.15-.2,1.73-.2,1.34,0,2.68.36,3.85,1.05l1.18.7c.85.5,1.8.75,2.76.75.7,0,1.4-.13,2.06-.41l3.05-1.25c.93-.38,1.9-.57,2.87-.57,1.43,0,2.84.4,4.08,1.19l3.81,2.43c.88.56,1.9.85,2.92.85.59,0,1.18-.1,1.75-.29l3.31-1.13c.8-.27,1.62-.4,2.44-.4,1.51,0,3,.45,4.27,1.32l3.02,2.06c.91.62,1.97.94,3.06.94.29,0,.57-.02.86-.07l2.17-.35c.4-.06.8-.1,1.2-.1,1.33,0,2.64.35,3.8,1.02l1.08.62c1.85,1.07,2.9,3.13,2.68,5.26l-7.65,73.68-79.57-1.2-28.54-52.57c-3.21-5.91-.65-13.3,5.53-15.96l11.18-4.82,2.68,26.79c.14,1.35,1.27,2.36,2.6,2.36.09,0,.18,0,.26-.01,1.44-.14,2.49-1.43,2.34-2.87l-2.94-29.38-4.84-53.73c-.82-9.06,5.81-17.1,14.86-18.02.58-.06,1.15-.09,1.72-.09M263.93,242.79h0c-.81,0-1.62.04-2.43.12-12.8,1.31-22.27,12.8-21.12,25.62l4.47,49.63c-.13.05-.25.1-.38.15l-11.18,4.82c-4.75,2.04-8.44,6.02-10.13,10.9-1.69,4.88-1.25,10.29,1.22,14.83l28.54,52.57c1.21,2.22,3.52,3.62,6.05,3.66l79.57,1.2s.07,0,.11,0c3.58,0,6.59-2.71,6.96-6.28l7.65-73.68c.51-4.87-1.91-9.6-6.14-12.05l-1.08-.62c-2.22-1.28-4.74-1.96-7.3-1.96-.77,0-1.55.06-2.31.18l-1.56.25-2.51-1.71c-2.43-1.66-5.27-2.53-8.21-2.53-1.6,0-3.18.26-4.7.78l-2.6.88-3.17-2.02c-2.35-1.49-5.06-2.29-7.84-2.29-1.9,0-3.76.37-5.53,1.09l-2.33.95-.51-.3c-2.24-1.32-4.8-2.02-7.41-2.02-.51,0-1.02.03-1.53.08l-1-39.24c-.16-6.22-2.71-12.03-7.18-16.36-4.43-4.29-10.26-6.66-16.41-6.66h0Z"/>
  <path class="st0" d="M224.75,330.63h-8.26c-10.91,0-19.79-8.88-19.79-19.79V109.68c0-10.91,8.88-19.79,19.79-19.79h89.72c10.91,0,19.79,8.88,19.79,19.79v198.34c2.28.29,4.45,1.1,6.37,2.41l.63.43h0V109.68c0-14.77-12.02-26.79-26.79-26.79h-89.72c-14.77,0-26.79,12.02-26.79,26.79v201.17c0,14.77,12.02,26.79,26.79,26.79h5.83c.16-1.22.44-2.43.85-3.61.41-1.19.95-2.32,1.58-3.39Z"/>
  <path class="st0" d="M241.42,259.24h-22.92V124.45h91.06v134.79h-23.15c.67,2.1,1.05,4.3,1.11,6.57v.43h25.54c1.93,0,3.5-1.57,3.5-3.5V120.95c0-1.93-1.57-3.5-3.5-3.5h-98.06c-1.93,0-3.5,1.57-3.5,3.5v141.79c0,1.93,1.57,3.5,3.5,3.5h25.29c.02-2.42.41-4.78,1.13-7Z"/>
  <path class="st0" d="M261.51,242.91c.81-.08,1.62-.12,2.43-.12h0c6.15,0,11.98,2.37,16.41,6.66,4.47,4.33,7.02,10.14,7.18,16.36l1,39.24c.51-.05,1.02-.08,1.53-.08.88,0,1.75.09,2.61.24l38.61-38.61,10.18-10.18c18.57-18.57,18.57-48.68,0-67.24h0c-18.57-18.57-48.68-18.57-67.24,0l-10.18,10.18-10.18-10.18c-18.57-18.57-48.68-18.57-67.24,0h0c-18.57,18.57-18.57,48.68,0,67.24l10.18,10.18,47.72,47.72-4.12-45.79c-1.15-12.81,8.32-24.31,21.12-25.62Z"/>
</svg>