<svg id="Calque_1" xmlns="http://www.w3.org/2000/svg" version="1.1" viewBox="0 0 540 540">
  <defs>
    <style>
      .st0, .st1 {
        fill: #ffff7d;
      }

      .st1 {
        opacity: .61;
      }

      .st2 {
        fill: #9d89e5;
      }
    </style>
  </defs>
  <path class="st0" d="M156.76,384.88c-1.68,0-3.24-1.06-3.79-2.74-3.69-11.08-5.56-22.67-5.56-34.46v-214.22c0-60.14,48.92-109.06,109.06-109.06s109.06,48.92,109.06,109.06v151.12c0,2.21-1.79,4-4,4s-4-1.79-4-4v-151.12c0-55.72-45.34-101.06-101.06-101.06s-101.06,45.33-101.06,101.06v214.22c0,10.92,1.73,21.67,5.15,31.93.7,2.1-.44,4.36-2.53,5.06-.42.14-.84.21-1.26.21Z"/>
  <ellipse class="st2" cx="266.47" cy="477.53" rx="90.98" ry="16.15"/>
  <path class="st0" d="M251.68,445.84c-1.22,0-2.47-.15-3.73-.47-3.21-.89-5.56-2.76-6.86-5.42-3.46-7.08,1.2-18.33,6.13-30.25,3.84-9.28,8.62-20.84,6.45-25.09-.28-.55-.83-1.24-2.53-1.65-6.35-1.63-16.81,11.5-24.46,21.08-4.25,5.32-8.26,10.35-11.96,13.73-7.45,7.04-19.66,10.39-30.33,8.31-8.63-1.69-15.22-6.64-18.56-13.94-.92-2.01-.03-4.38,1.98-5.3,2.01-.92,4.38-.03,5.3,1.98,2.86,6.27,8.55,8.58,12.81,9.41,8.13,1.59,17.73-1.01,23.35-6.32,3.28-3,7.1-7.79,11.15-12.87,10.49-13.15,21.35-26.75,32.64-23.85,4.49,1.08,6.69,3.74,7.73,5.78,3.84,7.54-1.03,19.32-6.19,31.79-3.46,8.37-8.21,19.84-6.33,23.68.13.27.41.84,1.72,1.2,7.14,1.81,15.55-8.77,22.98-18.1,8.74-10.97,17.77-22.32,27.5-15.47,7.07,4.75,4.36,12.94,2.58,18.36-1.05,3.2-2.25,6.82-1.34,8.39.53.92,2.15,1.69,4.56,2.19,9.07,1.7,14.04-3,14.25-3.2,1.57-1.52,4.1-1.52,5.64.04,1.54,1.55,1.57,4.04.03,5.61-.32.33-7.99,7.93-21.46,5.41-4.95-1.02-8.18-2.99-9.94-6.03-2.71-4.67-.91-10.11.67-14.9,1.94-5.89,2.28-8.05.49-9.26-3.64-2.56-10.58,6.16-16.71,13.86-8.01,10.06-16.97,21.32-27.55,21.32Z"/>
  <path class="st0" d="M163.15,402.38c-1.53,0-2.98-.88-3.65-2.36-.28-.62-.55-1.23-.81-1.85-.87-2.03.07-4.38,2.1-5.25s4.38.07,5.25,2.1c.24.57.49,1.14.75,1.71.91,2.01,0,4.38-2.01,5.29-.53.24-1.09.35-1.64.35Z"/>
  <g>
    <path class="st0" d="M340.93,368.19l76.87-146.18-7.38-3.88-79.13,150.46,7.02-.52c.88-.06,1.75-.02,2.61.11Z"/>
    <path class="st0" d="M351.73,377.85c.74,1.29,2.18,2.07,3.67,1.97l4.78-.31c.68-.05,1.35-.02,2.02.05l76.95-146.32-14.27-7.5-76.88,146.2c.59.64,1.11,1.35,1.56,2.12l2.18,3.8Z"/>
    <path class="st0" d="M369.42,383.02c.75.76,1.41,1.61,1.95,2.57l3.19,5.69,79.1-150.41h0s-7.43-3.91-7.43-3.91l-76.81,146.06Z"/>
    <path class="st0" d="M327.71,427.91l8.84-6.42c-2.38-2.03-5.23-3.55-8.58-4.03l-.27,10.45Z"/>
    <path class="st0" d="M365.84,392.08l-1.45-2.58c-.74-1.31-2.19-2.11-3.69-2l-3.19.21-1.59.1c-4.51.28-8.88-2.06-11.13-5.98l-.67-1.17-1.51-2.64c-.75-1.31-2.2-2.07-3.71-1.97l-3.11.23-4.14.3c-.89.07-1.78.03-2.65-.1l-.84,32.9c5.52.53,10.61,2.98,15.01,7.28l25.92-18.81c-.09-.12-.18-.25-.26-.39l-3.02-5.38Z"/>
    <path class="st0" d="M470.74,190.36c-1.34-1.89-3.13-3.51-5.32-4.66l-.99-.52-14.27-7.5-.94-.49c-2.21-1.16-4.58-1.72-6.93-1.74-5.55-.06-10.94,2.9-13.71,8.15l-1.02,1.94h0s7.38,3.88,7.38,3.88l7.08,3.72,14.27,7.5,7.08,3.72,7.43,3.91,1.02-1.94c2.77-5.27,2.14-11.42-1.09-15.97Z"/>
    <polygon class="st0" points="459.65 211.44 452.57 207.72 438.31 200.21 431.22 196.49 423.94 192.66 423.85 192.61 414.15 211.05 421.52 214.93 428.61 218.66 442.87 226.16 449.95 229.88 457.38 233.79 467.08 215.35 466.99 215.3 459.65 211.44"/>
  </g>
  <path class="st1" d="M348.37,91.44c-4.32-9.4-10.03-18.03-16.88-25.62l-176.07,178.92v85.54l201.78-205.05c-.97-11.97-4.04-23.36-8.83-33.8Z"/>
  <path class="st1" d="M155.41,346.53v1.16c0,3.71.22,7.39.61,11.05.4,3.7,1.01,7.37,1.82,10.99l199.69-202.93v-25.66l-202.12,205.39Z"/>
</svg>