<svg id="Calque_1" xmlns="http://www.w3.org/2000/svg" version="1.1" viewBox="0 0 540 540">
  <defs>
    <style>
      .st0 {
        fill: #ff6f3c;
      }

      .st1 {
        fill: #9eb6d8;
      }
    </style>
  </defs>
  <ellipse class="st1" cx="269.21" cy="440.5" rx="101.35" ry="17.99"/>
  <path class="st0" d="M270.57,356.49c-31.6,0-63.2-.84-94.58-2.51l-39.41-2.1c-15.61-.83-28.46-15.2-29.89-33.41l-.21-2.64c-3.67-46.66-3.67-93.98,0-140.65l.24-3.09c1.43-18.22,13.79-32.26,29.39-33.38l6.48-.47c84.19-6.05,169.56-6.08,253.74-.08l7.6.54c15.51,1.11,28.17,15.62,29.44,33.76l.73,10.46c2.9,41.52,2.9,83.63,0,125.16l-.7,10.04c-1.29,18.41-14.14,32.93-29.9,33.79l-37.06,2c-31.81,1.72-63.85,2.58-95.88,2.58ZM270.02,140.69c-42.41,0-84.81,1.51-126.93,4.54l-6.48.47c-11.92.86-21.77,12.44-22.91,26.95l-.24,3.09c-3.64,46.3-3.64,93.25,0,139.55l.21,2.64c1.16,14.73,11.17,26.33,23.28,26.97l39.41,2.1c62.94,3.36,126.76,3.33,189.71-.07l37.06-2,.19,3.5-.19-3.5c12.24-.66,22.25-12.39,23.29-27.28l.7-10.04c2.88-41.2,2.88-82.98,0-124.18l-.73-10.46c-1.03-14.68-10.89-26.4-22.95-27.26l-7.6-.54c-41.74-2.97-83.78-4.46-125.81-4.46Z"/>
  <path class="st0" d="M240.11,181.95l91.85,47.89c5.24,2.73,5.28,10.22.07,13.01l-91.07,48.67c-4.88,2.61-10.77-.9-10.82-6.43l-.78-96.56c-.04-5.55,5.83-9.14,10.75-6.58Z"/>
  <path class="st0" d="M270,328.28c-80.68,0-146.74-3.36-147.4-3.4l.36-6.99c.66.03,66.55,3.39,147.04,3.39,70.89,0,145.2-3.36,145.94-3.39l.32,6.99c-.74.03-75.21,3.4-146.26,3.4Z"/>
  <circle class="st0" cx="329.64" cy="323.08" r="10.54"/>
</svg>