<svg id="Calque_1" xmlns="http://www.w3.org/2000/svg" xmlns:xlink="http://www.w3.org/1999/xlink" version="1.1" viewBox="0 0 540 540">
  <defs>
    <style>
      .st0 {
        fill: none;
      }

      .st1 {
        mask: url(#mask);
      }

      .st2 {
        fill: #ffc328;
      }

      .st3 {
        fill: #ffba14;
      }

      .st4 {
        fill: #ffd34d;
      }

      .st5 {
        fill: #ffb70d;
      }

      .st6 {
        fill: #ffce41;
      }

      .st7 {
        fill: #ffb306;
      }

      .st8 {
        fill: #f29cf7;
      }

      .st9 {
        fill: #ffcd3f;
      }

      .st10 {
        fill: #ffb203;
      }

      .st11 {
        fill: #ffd34c;
      }

      .st12 {
        fill: #ffc732;
      }

      .st13 {
        fill: #ffc022;
      }

      .st14 {
        fill: #ffc329;
      }

      .st15 {
        fill: #ffcb3a;
      }

      .st16 {
        fill: #ffcd40;
      }

      .st17 {
        fill: #ffce42;
      }

      .st18 {
        fill: #ffb101;
      }

      .st19 {
        fill: #feabff;
      }

      .st20 {
        fill: #ffc731;
      }

      .st21 {
        fill: #ffb201;
      }

      .st22 {
        fill: #ffba13;
      }

      .st23 {
        fill: #ffd654;
      }

      .st24 {
        fill: #ffdb60;
      }

      .st25 {
        fill: #ffd95b;
      }

      .st26 {
        fill: #ffda5c;
      }

      .st27 {
        fill: #ffc42c;
      }

      .st28 {
        fill: #ffb70e;
      }

      .st29 {
        fill: #ffb50a;
      }

      .st30 {
        fill: #ffb406;
      }

      .st31 {
        fill: #ffd046;
      }

      .st32 {
        fill: #ffdc61;
      }

      .st33 {
        fill: #e2d571;
      }

      .st34 {
        fill: #ffda5d;
      }

      .st35 {
        fill: #ffca39;
      }

      .st36 {
        fill: #ffb100;
      }

      .st37 {
        fill: #ffb70c;
      }

      .st38 {
        fill: #ffc227;
      }

      .st39 {
        mask: url(#mask-1);
      }

      .st40 {
        fill: #ffcf43;
      }

      .st41 {
        fill: #ffc630;
      }

      .st42 {
        fill: #ffb810;
      }

      .st43 {
        fill: #ffc021;
      }

      .st44 {
        fill: #ffbc19;
      }

      .st45 {
        fill: #ffb913;
      }

      .st46 {
        fill: #ffc62f;
      }

      .st47 {
        fill: #ffbc18;
      }

      .st48 {
        fill: #ffca38;
      }

      .st49 {
        fill: #ffd857;
      }

      .st50 {
        fill: #ffb407;
      }

      .st51 {
        fill: #ffd148;
      }

      .st52 {
        fill: #ffbb16;
      }

      .st53 {
        fill: #ffbd1b;
      }

      .st54 {
        fill: #ffd653;
      }

      .st55 {
        fill: #ffd44f;
      }

      .st56 {
        fill: #ffb60c;
      }

      .st57 {
        fill: #ffd858;
      }

      .st58 {
        fill: #ffc833;
      }

      .st59 {
        fill: #ffd24b;
      }

      .st60 {
        fill: #ffb305;
      }

      .st61 {
        fill: #ffb509;
      }

      .st62 {
        fill: #ffbf20;
      }

      .st63 {
        fill: #ffdb5e;
      }

      .st64 {
        fill: #ffc42a;
      }

      .st65 {
        fill: #ffcb3b;
      }

      .st66 {
        fill: #ffc935;
      }

      .st67 {
        fill: #ffb304;
      }

      .st68 {
        fill: #ffb202;
      }

      .st69 {
        fill: #ffc125;
      }

      .st70 {
        fill: #ffb60b;
      }

      .st71 {
        fill: #ffc834;
      }

      .st72 {
        fill: #ffb80f;
      }

      .st73 {
        fill: url(#Dégradé_sans_nom_70);
      }

      .st74 {
        fill: #ffb811;
      }

      .st75 {
        fill: #ffd552;
      }

      .st76 {
        fill: #ffcf45;
      }

      .st77 {
        fill: #ffd551;
      }

      .st78 {
        fill: #ffd047;
      }

      .st79 {
        fill: #ffd44e;
      }

      .st80 {
        fill: #ffba15;
      }

      .st81 {
        fill: #ffc52e;
      }

      .st82 {
        fill: #ffbb17;
      }

      .st83 {
        fill: #ffc124;
      }

      .st84 {
        fill: #ffd959;
      }

      .st85 {
        fill: #ffc123;
      }

      .st86 {
        fill: #ffbf1f;
      }

      .st87 {
        fill: #ffbe1d;
      }

      .st88 {
        fill: #ffb508;
      }

      .st89 {
        fill: #ffc52d;
      }

      .st90 {
        fill: #ffcc3e;
      }

      .st91 {
        fill: #ffb408;
      }

      .st92 {
        clip-path: url(#clippath);
      }

      .st93 {
        fill: #ffc937;
      }

      .st94 {
        fill: #ffbd1c;
      }

      .st95 {
        fill: #ffbe1e;
      }

      .st96 {
        fill: #ffd249;
      }

      .st97 {
        fill: #ffb912;
      }

      .st98 {
        fill: #ffc226;
      }

      .st99 {
        fill: #ffbd1a;
      }

      .st100 {
        fill: #ffd756;
      }

      .st101 {
        fill: #ffcc3c;
      }
    </style>
    <mask id="mask" x="317.87" y="83.57" width="246.52" height="253.71" maskUnits="userSpaceOnUse">
      <path class="st8" d="M545.91,173.77l-181.43-86.97c-9.08-4.35-18.77-4.08-26.94-.53h0s-.98.43-.98.43c0,0,0,0,0,0l-18.68,8.42,5.9,2.32c-3.67,5.2-5.9,11.59-5.9,18.71v167.76c0,11.47,5.76,21.08,14.14,26.83v5.69h16.54c4.96.29,10.1-.56,15.1-2.78l181.43-80.79c25.35-11.29,25.85-47.08.83-59.08Z"/>
    </mask>
    <clipPath id="clippath">
      <path class="st0" d="M317.87,322.48h0c13.49-6.13.59,14.8,0,0h0Z"/>
    </clipPath>
    <mask id="mask-1" x="317.87" y="118.44" width="246.52" height="244.32" maskUnits="userSpaceOnUse">
      <path class="st8" d="M545.91,208.64l-181.43-86.97c-9.08-4.35-18.77-4.08-26.94-.53h0s-.98.43-.98.43c0,0,0,0,0,0l-18.68,8.42,5.9,2.32c-3.67,5.2-5.9,11.59-5.9,18.71v167.76c0,11.47,5.76,21.08,14.14,26.83v5.69h16.54c4.96.29,10.1-.56,15.1-2.78l181.43-80.79c25.35-11.29,25.85-47.08.83-59.08Z"/>
    </mask>
    <linearGradient id="Dégradé_sans_nom_70" data-name="Dégradé sans nom 70" x1="322.78" y1="362.81" x2="321.79" y2="360.57" gradientUnits="userSpaceOnUse">
      <stop offset="0" stop-color="#ffb100"/>
      <stop offset=".19" stop-color="#ffb60b"/>
      <stop offset=".52" stop-color="#ffc32a"/>
      <stop offset=".96" stop-color="#ffd95b"/>
      <stop offset="1" stop-color="#ffdc61"/>
    </linearGradient>
  </defs>
  <g class="st1">
    <g class="st92">
      <polygon class="st36" points="317.87 330.12 331.36 324.14 331.36 337.29 317.87 337.29 317.87 330.12"/>
      <polygon class="st36" points="317.87 330.09 331.36 324.11 331.36 324.14 317.87 330.12 317.87 330.09"/>
      <polygon class="st36" points="317.87 330.06 331.36 324.08 331.36 324.11 317.87 330.09 317.87 330.06"/>
      <polygon class="st18" points="317.87 330.03 331.36 324.06 331.36 324.08 317.87 330.06 317.87 330.03"/>
      <polygon class="st21" points="317.87 330 331.36 324.03 331.36 324.06 317.87 330.03 317.87 330"/>
      <polygon class="st68" points="317.87 329.98 331.36 324 331.36 324.03 317.87 330 317.87 329.98"/>
      <polygon class="st68" points="317.87 329.95 331.36 323.97 331.36 324 317.87 329.98 317.87 329.95"/>
      <polygon class="st10" points="317.87 329.92 331.36 323.95 331.36 323.97 317.87 329.95 317.87 329.92"/>
      <polygon class="st67" points="317.87 329.89 331.36 323.92 331.36 323.95 317.87 329.92 317.87 329.89"/>
      <polygon class="st67" points="317.87 329.87 331.36 323.89 331.36 323.92 317.87 329.89 317.87 329.87"/>
      <polygon class="st60" points="317.87 329.84 331.36 323.86 331.36 323.89 317.87 329.87 317.87 329.84"/>
      <polygon class="st7" points="317.87 329.81 331.36 323.84 331.36 323.86 317.87 329.84 317.87 329.81"/>
      <polygon class="st30" points="317.87 329.78 331.36 323.81 331.36 323.84 317.87 329.81 317.87 329.78"/>
      <polygon class="st50" points="317.87 329.76 331.36 323.78 331.36 323.81 317.87 329.78 317.87 329.76"/>
      <polygon class="st91" points="317.87 329.73 331.36 323.75 331.36 323.78 317.87 329.76 317.87 329.73"/>
      <polygon class="st88" points="317.87 329.7 331.36 323.73 331.36 323.75 317.87 329.73 317.87 329.7"/>
      <polygon class="st61" points="317.87 329.67 331.36 323.7 331.36 323.73 317.87 329.7 317.87 329.67"/>
      <polygon class="st29" points="317.87 329.65 331.36 323.67 331.36 323.7 317.87 329.67 317.87 329.65"/>
      <polygon class="st70" points="317.87 329.62 331.36 323.64 331.36 323.67 317.87 329.65 317.87 329.62"/>
      <polygon class="st56" points="317.87 329.59 331.36 323.61 331.36 323.64 317.87 329.62 317.87 329.59"/>
      <polygon class="st37" points="317.87 329.56 331.36 323.59 331.36 323.61 317.87 329.59 317.87 329.56"/>
      <polygon class="st5" points="317.87 329.54 331.36 323.56 331.36 323.59 317.87 329.56 317.87 329.54"/>
      <polygon class="st28" points="317.87 329.51 331.36 323.53 331.36 323.56 317.87 329.54 317.87 329.51"/>
      <polygon class="st72" points="317.87 329.48 331.36 323.5 331.36 323.53 317.87 329.51 317.87 329.48"/>
      <polygon class="st42" points="317.87 329.45 331.36 323.48 331.36 323.5 317.87 329.48 317.87 329.45"/>
      <polygon class="st74" points="317.87 329.42 331.36 323.45 331.36 323.48 317.87 329.45 317.87 329.42"/>
      <polygon class="st97" points="317.87 329.4 331.36 323.42 331.36 323.45 317.87 329.42 317.87 329.4"/>
      <polygon class="st45" points="317.87 329.37 331.36 323.39 331.36 323.42 317.87 329.4 317.87 329.37"/>
      <polygon class="st22" points="317.87 329.34 331.36 323.37 331.36 323.39 317.87 329.37 317.87 329.34"/>
      <polygon class="st3" points="317.87 329.31 331.36 323.34 331.36 323.37 317.87 329.34 317.87 329.31"/>
      <polygon class="st80" points="317.87 329.29 331.36 323.31 331.36 323.34 317.87 329.31 317.87 329.29"/>
      <polygon class="st52" points="317.87 329.26 331.36 323.28 331.36 323.31 317.87 329.29 317.87 329.26"/>
      <polygon class="st82" points="317.87 329.23 331.36 323.26 331.36 323.28 317.87 329.26 317.87 329.23"/>
      <polygon class="st47" points="317.87 329.2 331.36 323.23 331.36 323.26 317.87 329.23 317.87 329.2"/>
      <polygon class="st44" points="317.87 329.18 331.36 323.2 331.36 323.23 317.87 329.2 317.87 329.18"/>
      <polygon class="st99" points="317.87 329.15 331.36 323.17 331.36 323.2 317.87 329.18 317.87 329.15"/>
      <polygon class="st53" points="317.87 329.12 331.36 323.15 331.36 323.17 317.87 329.15 317.87 329.12"/>
      <polygon class="st94" points="317.87 329.09 331.36 323.12 331.36 323.15 317.87 329.12 317.87 329.09"/>
      <polygon class="st87" points="317.87 329.07 331.36 323.09 331.36 323.12 317.87 329.09 317.87 329.07"/>
      <polygon class="st95" points="317.87 329.04 331.36 323.06 331.36 323.09 317.87 329.07 317.87 329.04"/>
      <polygon class="st86" points="317.87 329.01 331.36 323.04 331.36 323.06 317.87 329.04 317.87 329.01"/>
      <polygon class="st62" points="317.87 328.98 331.36 323.01 331.36 323.04 317.87 329.01 317.87 328.98"/>
      <polygon class="st43" points="317.87 328.96 331.36 322.98 331.36 323.01 317.87 328.98 317.87 328.96"/>
      <polygon class="st13" points="317.87 328.93 331.36 322.95 331.36 322.98 317.87 328.96 317.87 328.93"/>
      <polygon class="st85" points="317.87 328.9 331.36 322.92 331.36 322.95 317.87 328.93 317.87 328.9"/>
      <polygon class="st83" points="317.87 328.87 331.36 322.9 331.36 322.92 317.87 328.9 317.87 328.87"/>
      <polygon class="st69" points="317.87 328.85 331.36 322.87 331.36 322.9 317.87 328.87 317.87 328.85"/>
      <polygon class="st98" points="317.87 328.82 331.36 322.84 331.36 322.87 317.87 328.85 317.87 328.82"/>
      <polygon class="st38" points="317.87 328.79 331.36 322.81 331.36 322.84 317.87 328.82 317.87 328.79"/>
      <polygon class="st2" points="317.87 328.76 331.36 322.79 331.36 322.81 317.87 328.79 317.87 328.76"/>
      <polygon class="st14" points="317.87 328.73 331.36 322.76 331.36 322.79 317.87 328.76 317.87 328.73"/>
      <polygon class="st64" points="317.87 328.71 331.36 322.73 331.36 322.76 317.87 328.73 317.87 328.71"/>
      <polygon class="st27" points="317.87 328.68 331.36 322.7 331.36 322.73 317.87 328.71 317.87 328.68"/>
      <polygon class="st89" points="317.87 328.65 331.36 322.68 331.36 322.7 317.87 328.68 317.87 328.65"/>
      <polygon class="st81" points="317.87 328.62 331.36 322.65 331.36 322.68 317.87 328.65 317.87 328.62"/>
      <polygon class="st46" points="317.87 328.6 331.36 322.62 331.36 322.65 317.87 328.62 317.87 328.6"/>
      <polygon class="st41" points="317.87 328.57 331.36 322.59 331.36 322.62 317.87 328.6 317.87 328.57"/>
      <polygon class="st20" points="317.87 328.54 331.36 322.57 331.36 322.59 317.87 328.57 317.87 328.54"/>
      <polygon class="st12" points="317.87 328.51 331.36 322.54 331.36 322.57 317.87 328.54 317.87 328.51"/>
      <polygon class="st58" points="317.87 328.49 331.36 322.51 331.36 322.54 317.87 328.51 317.87 328.49"/>
      <polygon class="st71" points="317.87 328.46 331.36 322.48 331.36 322.51 317.87 328.49 317.87 328.46"/>
      <polygon class="st66" points="317.87 328.43 331.36 322.46 331.36 322.48 317.87 328.46 317.87 328.43"/>
      <polygon class="st93" points="317.87 328.4 331.36 322.43 331.36 322.46 317.87 328.43 317.87 328.4"/>
      <polygon class="st48" points="317.87 328.38 331.36 322.4 331.36 322.43 317.87 328.4 317.87 328.38"/>
      <polygon class="st35" points="317.87 328.35 331.36 322.37 331.36 322.4 317.87 328.38 317.87 328.35"/>
      <polygon class="st15" points="317.87 328.32 331.36 322.34 331.36 322.37 317.87 328.35 317.87 328.32"/>
      <polygon class="st65" points="317.87 328.29 331.36 322.32 331.36 322.34 317.87 328.32 317.87 328.29"/>
      <polygon class="st101" points="317.87 328.27 331.36 322.29 331.36 322.32 317.87 328.29 317.87 328.27"/>
      <polygon class="st90" points="317.87 328.24 331.36 322.26 331.36 322.29 317.87 328.27 317.87 328.24"/>
      <polygon class="st9" points="317.87 328.21 331.36 322.23 331.36 322.26 317.87 328.24 317.87 328.21"/>
      <polygon class="st16" points="317.87 328.18 331.36 322.21 331.36 322.23 317.87 328.21 317.87 328.18"/>
      <polygon class="st6" points="317.87 328.15 331.36 322.18 331.36 322.21 317.87 328.18 317.87 328.15"/>
      <polygon class="st17" points="317.87 328.13 331.36 322.15 331.36 322.18 317.87 328.15 317.87 328.13"/>
      <polygon class="st40" points="317.87 328.1 331.36 322.12 331.36 322.15 317.87 328.13 317.87 328.1"/>
      <polygon class="st76" points="317.87 328.07 331.36 322.1 331.36 322.12 317.87 328.1 317.87 328.07"/>
      <polygon class="st31" points="317.87 328.04 331.36 322.07 331.36 322.1 317.87 328.07 317.87 328.04"/>
      <polygon class="st78" points="317.87 328.02 331.36 322.04 331.36 322.07 317.87 328.04 317.87 328.02"/>
      <polygon class="st51" points="317.87 327.99 331.36 322.01 331.36 322.04 317.87 328.02 317.87 327.99"/>
      <polygon class="st96" points="317.87 327.96 331.36 321.99 331.36 322.01 317.87 327.99 317.87 327.96"/>
      <polygon class="st59" points="317.87 327.93 331.36 321.96 331.36 321.99 317.87 327.96 317.87 327.93"/>
      <polygon class="st11" points="317.87 327.91 331.36 321.93 331.36 321.96 317.87 327.93 317.87 327.91"/>
      <polygon class="st4" points="317.87 327.88 331.36 321.9 331.36 321.93 317.87 327.91 317.87 327.88"/>
      <polygon class="st79" points="317.87 327.85 331.36 321.88 331.36 321.9 317.87 327.88 317.87 327.85"/>
      <polygon class="st55" points="317.87 327.82 331.36 321.85 331.36 321.88 317.87 327.85 317.87 327.82"/>
      <polygon class="st77" points="317.87 327.8 331.36 321.82 331.36 321.85 317.87 327.82 317.87 327.8"/>
      <polygon class="st75" points="317.87 327.77 331.36 321.79 331.36 321.82 317.87 327.8 317.87 327.77"/>
      <polygon class="st54" points="317.87 327.74 331.36 321.77 331.36 321.79 317.87 327.77 317.87 327.74"/>
      <polygon class="st23" points="317.87 327.71 331.36 321.74 331.36 321.77 317.87 327.74 317.87 327.71"/>
      <polygon class="st100" points="317.87 327.69 331.36 321.71 331.36 321.74 317.87 327.71 317.87 327.69"/>
      <polygon class="st49" points="317.87 327.66 331.36 321.68 331.36 321.71 317.87 327.69 317.87 327.66"/>
      <polygon class="st57" points="317.87 327.63 331.36 321.65 331.36 321.68 317.87 327.66 317.87 327.63"/>
      <polygon class="st84" points="317.87 327.6 331.36 321.63 331.36 321.65 317.87 327.63 317.87 327.6"/>
      <polygon class="st25" points="317.87 327.57 331.36 321.6 331.36 321.63 317.87 327.6 317.87 327.57"/>
      <polygon class="st26" points="317.87 327.55 331.36 321.57 331.36 321.6 317.87 327.57 317.87 327.55"/>
      <polygon class="st34" points="317.87 327.52 331.36 321.54 331.36 321.57 317.87 327.55 317.87 327.52"/>
      <polygon class="st63" points="317.87 327.49 331.36 321.52 331.36 321.54 317.87 327.52 317.87 327.49"/>
      <polygon class="st24" points="317.87 327.46 331.36 321.49 331.36 321.52 317.87 327.49 317.87 327.46"/>
      <polygon class="st32" points="317.87 327.44 331.36 321.46 331.36 321.49 317.87 327.46 317.87 327.44"/>
      <polygon class="st32" points="331.36 321.46 317.87 327.44 317.87 316.35 331.36 316.35 331.36 321.46"/>
    </g>
  </g>
  <g>
    <path d="M199.65,354.15h.34c-.11,0-.23,0-.34,0h0Z"/>
    <path d="M200.41,354.16c.14,0,.27,0,.41-.01h-.83c.14,0,.28.01.42.01Z"/>
    <path class="st19" d="M412.38,211.43l-181.43-86.97c-9.08-4.35-18.77-4.08-26.94-.53h0s-16.09,7.19-16.09,7.19h.01c-10.9,4.74-19.03,15.51-19.03,28.95v162.52c0,17.9,14.46,31.14,30.76,31.54.11,0,.23,0,.34,0h16.16c4.61.1,9.35-.78,13.98-2.84l181.43-80.79c25.35-11.29,25.85-47.08.83-59.08ZM200.41,347.16c-.43,0-.86-.01-1.28-.03-.94-.05-1.87-.16-2.78-.31-11.59-1.95-20.45-12.06-20.45-24.22v-162.52c0-8.96,4.82-16.82,12-21.11,2.62-1.57,5.56-2.66,8.69-3.16,1.25-.2,2.53-.3,3.84-.3h0c2.33,0,4.63.34,6.88,1.01,1.26.38,2.5.85,3.72,1.44l175.76,84.25c8.86,4.24,14.06,12.64,13.92,22.46-.14,9.82-5.58,18.07-14.55,22.06l-169.72,75.58-6.04,2.69c-3.21,1.43-6.57,2.16-9.99,2.16ZM398.79,222.29c-.9-.56-1.83-1.1-2.81-1.58l-48.48-23.24c-1.33-.64-2.23-1.79-2.62-3.11-.34-1.14-.28-2.4.27-3.56,1.19-2.49,4.18-3.54,6.67-2.35l48.54,23.27c9.48,4.72,16.17,12.12,18.9,20.86.82,2.64-.65,5.44-3.28,6.26-.5.15-1,.23-1.49.23-2.13,0-4.1-1.37-4.77-3.51-1.61-5.17-5.53-9.88-10.93-13.27ZM419.67,248.38c-.42,2.51-2.5,4.25-4.92,4.25-.26,0-.53-.02-.8-.06-2.09-.33-4.04-2.08-4.21-4.59-.03-.42-.01-.84.07-1.28.06-.39.17-.75.32-1.1.96-2.36,3.38-3.41,5.48-3.04,1.44.25,2.63,1.12,3.36,2.29.55.87.84,1.91.76,3-.01.18-.03.36-.06.53Z"/>
  </g>
  <path class="st19" d="M336.78,230.21c-.94,0-1.9-.21-2.81-.64l-113.21-54.26c-3.24-1.55-4.6-5.43-3.05-8.67,1.55-3.24,5.44-4.6,8.67-3.05l113.21,54.26c3.24,1.55,4.6,5.43,3.05,8.67-1.12,2.33-3.44,3.69-5.87,3.69Z"/>
  <path class="st19" d="M362.89,242.71c-.85,0-1.72-.17-2.55-.53l-1.67-.72c-3.3-1.41-4.83-5.23-3.42-8.53s5.23-4.83,8.53-3.42l1.67.72c3.3,1.41,4.83,5.23,3.42,8.53-1.06,2.47-3.46,3.94-5.98,3.94Z"/>
  <ellipse class="st33" cx="246.15" cy="382.53" rx="87.55" ry="13.16"/>
  <g class="st39">
    <path class="st73" d="M317.87,357.35h0c13.49-6.13.59,14.8,0,0h0Z"/>
  </g>
</svg>