<svg id="Calque_1" xmlns="http://www.w3.org/2000/svg" xmlns:xlink="http://www.w3.org/1999/xlink" version="1.1" viewBox="0 0 540 540">
  <defs>
    <style>
      .st0 {
        mask: url(#mask);
      }

      .st1 {
        fill: #cef4ba;
      }

      .st2 {
        opacity: .71;
      }

      .st3 {
        opacity: .5;
      }

      .st4 {
        fill: #334fd7;
      }

      .st5 {
        fill: #9fcc87;
      }
    </style>
    <mask id="mask" x="81.34" y="-19.19" width="402.37" height="556.86" maskUnits="userSpaceOnUse">
      <g>
        <rect class="st1" x="81.34" y="-19.19" width="402.37" height="556.86"/>
        <g>
          <path d="M417.06,184.24c-.09-21.78-17.83-39.44-39.59-39.44h-.14l-29.07.1c4.27-10.04,6.52-20.91,6.47-31.96v-1.14c-.17-38.88-28.02-72.13-66.22-79.06l-1.25,6.89c34.88,6.32,60.31,36.69,60.46,72.2v1.14c.08,17.29-5.96,34.12-16.99,47.39l5.38,4.47c3.35-4.03,6.26-8.36,8.74-12.92l32.49-.11h.12c17.91,0,32.52,14.54,32.59,32.46l.93,234.49c.04,8.84-6.84,16.16-15.66,16.65-1.93.11-3.41,1.76-3.3,3.69.1,1.86,1.65,3.3,3.49,3.3.07,0,.13,0,.2,0,12.54-.7,22.33-11.1,22.27-23.67l-.93-234.49Z"/>
          <path d="M179.97,145.58h-.02l-24.33.11c-9.51.04-18.02,5.74-21.69,14.51-.75,1.78.1,3.83,1.88,4.58.44.18.9.27,1.35.27,1.37,0,2.67-.81,3.23-2.15,2.58-6.17,8.57-10.18,15.26-10.21l24.33-.11c1.93,0,3.49-1.58,3.48-3.52,0-1.93-1.57-3.48-3.5-3.48Z"/>
        </g>
      </g>
    </mask>
  </defs>
  <ellipse class="st5" cx="250.69" cy="502.81" rx="82.43" ry="14.63" transform="translate(-2.15 1.08) rotate(-.25)"/>
  <g class="st0">
    <g class="st3">
      <path class="st4" d="M435.39,181.36c-.12-29.34-24.07-53.19-53.41-53.19h-.03c-2.86,0-5.42,0-7.53,0,.2-2.39.3-4.79.29-7.21-.15-35.89-24.34-67.83-58.83-77.67-1.86-.53-3.8.55-4.33,2.41-.53,1.86.55,3.8,2.41,4.33,31.5,8.99,53.6,38.17,53.75,70.96.01,3.33-.19,6.63-.61,9.89-.04.17-.06.34-.07.51-.73,5.37-2.04,10.63-3.93,15.73-.67,1.81.25,3.83,2.06,4.5.4.15.81.22,1.22.22,1.42,0,2.76-.87,3.28-2.28,1.74-4.68,3.03-9.49,3.87-14.39,2.26,0,5.15,0,8.43-.01h.03c25.49,0,46.31,20.73,46.41,46.22l.87,220.36c.04,8.54-6.59,15.82-15.08,16.57-1.93.17-3.35,1.87-3.18,3.8.16,1.82,1.69,3.19,3.48,3.19.1,0,.21,0,.31-.01,12.09-1.07,21.51-11.43,21.46-23.57l-.87-220.36Z"/>
      <path class="st4" d="M172.01,129.32c-10.37,1.08-18.9,9.01-20.73,19.28-.34,1.9.93,3.72,2.83,4.06.21.04.41.06.62.06,1.66,0,3.14-1.19,3.44-2.89,1.29-7.21,7.27-12.79,14.56-13.55,1.92-.2,3.32-1.92,3.12-3.85s-1.93-3.31-3.84-3.12Z"/>
    </g>
  </g>
  <g class="st2">
    <path class="st4" d="M417.06,184.24c-.09-21.78-17.83-39.44-39.59-39.44h-.14l-29.07.1c4.27-10.04,6.52-20.91,6.47-31.96v-1.14c-.17-38.88-28.02-72.13-66.22-79.06l-1.25,6.89c34.88,6.32,60.31,36.69,60.46,72.2v1.14c.08,17.29-5.96,34.12-16.99,47.39l5.38,4.47c3.35-4.03,6.26-8.36,8.74-12.92l32.49-.11h.12c17.91,0,32.52,14.54,32.59,32.46l.93,234.49c.04,8.84-6.84,16.16-15.66,16.65-1.93.11-3.41,1.76-3.3,3.69.1,1.86,1.65,3.3,3.49,3.3.07,0,.13,0,.2,0,12.54-.7,22.33-11.1,22.27-23.67l-.93-234.49Z"/>
    <path class="st4" d="M179.97,145.58h-.02l-24.33.11c-9.51.04-18.02,5.74-21.69,14.51-.75,1.78.1,3.83,1.88,4.58.44.18.9.27,1.35.27,1.37,0,2.67-.81,3.23-2.15,2.58-6.17,8.57-10.18,15.26-10.21l24.33-.11c1.93,0,3.49-1.58,3.48-3.52,0-1.93-1.57-3.48-3.5-3.48Z"/>
  </g>
  <g>
    <path class="st4" d="M249.39,164.42c-13.51,0-33.89-13.54-40.01-31.08-.75-2.05-1.3-4.15-1.62-6.2-.22-1.54-.23-3.02-.23-4.32l-.05-25.7h5l.05,25.68c0,1.19,0,2.42.18,3.59.27,1.7.73,3.48,1.38,5.26,5.85,16.77,25.16,27.77,35.37,27.76,5.63-.02,18.73-6.03,28-16.85v-3.76l1.99,1.32c4.37-5.8,6.66-11.86,6.63-17.65v-34.21h5v34.2c.03,7.55-3.15,15.38-9.19,22.62l-1.44,1.72-.04-.03c-9.53,10.57-23.4,17.6-30.92,17.63h-.09Z"/>
    <path class="st4" d="M127.75,469.12c-6.48,0-12.57-2.51-17.17-7.07-4.63-4.59-7.19-10.7-7.22-17.22l-1.12-260.36c-.03-6.52,2.48-12.65,7.07-17.28,4.59-4.63,10.7-7.19,17.22-7.22l62.82-.29h.02c1.93,0,3.49,1.56,3.5,3.48,0,1.93-1.55,3.51-3.48,3.52l-62.82.29c-4.65.02-9.01,1.85-12.28,5.15-3.27,3.3-5.06,7.67-5.04,12.32l1.12,260.36c.02,4.65,1.85,9.01,5.15,12.28,3.3,3.27,7.67,5.08,12.32,5.04l246.9-1.06c9.59-.04,17.36-7.88,17.32-17.47l-1.12-260.36c-.04-9.57-7.84-17.32-17.39-17.32h-.08l-64.2.29h-.02c-1.93,0-3.49-1.56-3.5-3.48,0-1.93,1.55-3.51,3.48-3.52l64.2-.29h.11c13.4,0,24.34,10.87,24.39,24.29l1.12,260.36c.06,13.45-10.84,24.44-24.29,24.5l-246.9,1.06h-.11Z"/>
    <path class="st4" d="M134.94,249.86c-1.93,0-3.49-1.56-3.5-3.49,0-1.93,1.55-3.51,3.48-3.51l165.38-.71h.02c1.93,0,3.49,1.56,3.5,3.49,0,1.93-1.55,3.51-3.48,3.51l-165.38.71h-.02Z"/>
    <path class="st4" d="M134.98,260.1c-1.93,0-3.49-1.56-3.5-3.49,0-1.93,1.55-3.51,3.48-3.51l165.38-.71h.02c1.93,0,3.49,1.56,3.5,3.49,0,1.93-1.55,3.51-3.48,3.51l-165.38.71h-.02Z"/>
    <path class="st4" d="M135.02,270.34c-1.93,0-3.49-1.56-3.5-3.49,0-1.93,1.55-3.51,3.48-3.51l165.38-.71h.02c1.93,0,3.49,1.56,3.5,3.49,0,1.93-1.55,3.51-3.48,3.51l-165.38.71h-.02Z"/>
    <path class="st4" d="M352.12,253.56c-.25-.23-.53-.4-.84-.52-.31-.12-.63-.18-.95-.17-.44,0-.83.09-1.16.26-.33.17-.61.4-.83.67-.22.28-.38.58-.5.92-.11.34-.17.67-.16,1.01,0,.38.07.73.21,1.07.14.34.32.63.56.87.24.25.52.44.84.58.32.14.68.21,1.06.21.36,0,.71-.07,1.03-.21s.6-.34.83-.58.41-.54.54-.89c.13-.34.2-.73.2-1.14,0-.46-.08-.87-.23-1.21s-.35-.64-.6-.87Z"/>
    <path class="st4" d="M350.19,237.42h0c-10.08.04-18.22,8.25-18.17,18.33.04,10.08,8.25,18.22,18.33,18.17h0c10.08-.04,18.22-8.25,18.17-18.33-.04-10.08-8.25-18.22-18.33-18.17ZM355,260.13h-1.96s0-1.1,0-1.1c-.17.2-.38.39-.62.57-.24.17-.5.32-.77.45s-.56.22-.86.29c-.3.07-.59.11-.87.11-.58,0-1.13-.11-1.65-.32-.52-.22-.98-.54-1.39-.95-.4-.42-.73-.92-.97-1.52-.24-.59-.36-1.26-.36-2,0-.69.11-1.32.35-1.89.23-.58.55-1.07.95-1.49.4-.42.87-.75,1.41-.99.54-.24,1.12-.36,1.75-.36.45,0,.86.07,1.22.2.36.14.67.29.92.46.25.16.45.33.59.48.14.16.22.25.24.28h.03s0-1.13,0-1.13h1.96s.04,8.93.04,8.93Z"/>
    <path class="st4" d="M135.71,431.05c-1.93,0-3.49-1.56-3.5-3.49,0-1.93,1.55-3.51,3.48-3.51l165.38-.71c1.93-.05,3.51,1.55,3.52,3.49,0,1.93-1.55,3.51-3.48,3.51l-165.38.71h-.02Z"/>
    <path class="st4" d="M135.76,441.29c-1.93,0-3.49-1.56-3.5-3.49,0-1.93,1.55-3.51,3.48-3.51l165.38-.71h.02c1.93,0,3.49,1.56,3.5,3.49,0,1.93-1.55,3.51-3.48,3.51l-165.38.71h-.02Z"/>
    <path class="st4" d="M135.8,451.53c-1.93,0-3.49-1.56-3.5-3.49,0-1.93,1.55-3.51,3.48-3.51l165.38-.71h.02c1.93,0,3.49,1.56,3.5,3.49,0,1.93-1.55,3.51-3.48,3.51l-165.38.71h-.02Z"/>
    <path class="st4" d="M352.64,434.86c-.22-.17-.45-.29-.72-.37-.26-.08-.54-.12-.83-.12-.21,0-.45.03-.7.09s-.5.17-.73.32c-.24.15-.45.36-.65.62-.2.26-.34.61-.44,1.02l4.94-.02c-.07-.35-.17-.66-.33-.92-.15-.26-.34-.47-.55-.63Z"/>
    <path class="st4" d="M350.96,418.62h0c-10.08.04-18.22,8.25-18.17,18.33.04,10.08,8.25,18.22,18.33,18.17h0c10.08-.04,18.22-8.25,18.17-18.33-.04-10.08-8.25-18.22-18.33-18.17ZM355.67,437.63c-.03.18-.05.34-.09.49l-6.94.03c.02.15.09.33.21.54.12.21.28.41.49.6s.46.35.75.49c.3.13.64.2,1.02.2.96,0,1.64-.39,2.06-1.15h2.25c-.13.4-.32.79-.59,1.16-.27.37-.59.7-.96.99-.37.29-.8.52-1.26.7-.47.17-.96.26-1.49.26-.68,0-1.3-.12-1.89-.36-.58-.24-1.08-.58-1.5-1.01-.42-.43-.75-.93-.99-1.5-.24-.57-.36-1.19-.36-1.84s.11-1.24.33-1.82.54-1.09.94-1.53c.41-.44.9-.79,1.48-1.06.58-.27,1.22-.4,1.93-.4s1.38.13,1.96.4c.58.27,1.06.63,1.45,1.06.39.44.7.94.91,1.49.21.56.32,1.12.32,1.67,0,.21-.01.41-.04.59Z"/>
    <path class="st4" d="M134.88,295.16c-1.93,0-3.49-1.56-3.5-3.49,0-1.93,1.55-3.51,3.48-3.51l165.38-.71h.02c1.93,0,3.49,1.56,3.5,3.49,0,1.93-1.55,3.51-3.48,3.51l-165.38.71h-.02Z"/>
    <path class="st4" d="M134.92,305.4c-1.93,0-3.49-1.56-3.5-3.49,0-1.93,1.55-3.51,3.48-3.51l165.38-.71h.02c1.93,0,3.49,1.56,3.5,3.49,0,1.93-1.55,3.51-3.48,3.51l-165.38.71h-.02Z"/>
    <path class="st4" d="M134.97,315.63c-1.93,0-3.49-1.56-3.5-3.49,0-1.93,1.55-3.51,3.48-3.51l165.38-.71h.02c1.93,0,3.49,1.56,3.5,3.49,0,1.93-1.55,3.51-3.48,3.51l-165.38.71h-.02Z"/>
    <path class="st4" d="M350.38,282.72h0c-10.08.04-18.22,8.25-18.17,18.33h0c.04,10.08,8.25,18.22,18.33,18.17h0c10.08-.04,18.22-8.25,18.17-18.33h0c-.04-10.08-8.25-18.22-18.33-18.17ZM353.47,305.43h-1.32s-1.7-5.78-1.7-5.78h-.03s-1.67,5.8-1.67,5.8h-1.32s-3.26-8.92-3.26-8.92h2.29s1.65,5.44,1.65,5.44h.03s1.44-5.47,1.44-5.47h1.71s1.47,5.45,1.47,5.45h.03s1.62-5.47,1.62-5.47h2.29s-3.23,8.94-3.23,8.94Z"/>
    <path class="st4" d="M135.32,340.45c-1.93,0-3.49-1.56-3.5-3.49,0-1.93,1.55-3.51,3.48-3.51l165.38-.71c1.96-.04,3.51,1.55,3.52,3.49,0,1.93-1.55,3.51-3.48,3.51l-165.38.71h-.02Z"/>
    <path class="st4" d="M135.37,350.69c-1.93,0-3.49-1.56-3.5-3.49,0-1.93,1.55-3.51,3.48-3.51l165.38-.71h.02c1.93,0,3.49,1.56,3.5,3.49,0,1.93-1.55,3.51-3.48,3.51l-165.38.71h-.02Z"/>
    <path class="st4" d="M135.41,360.93c-1.93,0-3.49-1.56-3.5-3.49,0-1.93,1.55-3.51,3.48-3.51l165.38-.71h.02c1.93,0,3.49,1.56,3.5,3.49,0,1.93-1.55,3.51-3.48,3.51l-165.38.71h-.02Z"/>
    <path class="st4" d="M352.46,344.27c-.24-.25-.52-.45-.83-.59-.31-.14-.63-.21-.97-.21-.28,0-.57.06-.88.18-.31.12-.59.3-.84.53-.26.24-.47.53-.64.89-.17.35-.25.76-.25,1.22,0,.42.08.8.22,1.14.15.34.34.63.59.88.25.24.53.43.84.56.31.13.64.2.98.2.39,0,.74-.08,1.06-.24.32-.16.59-.36.82-.62.22-.26.4-.55.52-.89.12-.33.18-.68.18-1.03,0-.41-.08-.78-.22-1.13-.15-.34-.34-.64-.58-.89Z"/>
    <path class="st4" d="M350.58,328.02h0c-10.08.04-18.22,8.25-18.17,18.33h0c.04,10.08,8.25,18.22,18.33,18.17h0c10.08-.04,18.22-8.25,18.17-18.33h0c-.04-10.08-8.25-18.22-18.33-18.17ZM355.02,348.22c-.26.59-.61,1.1-1.04,1.51-.43.42-.93.74-1.5.96-.57.23-1.16.34-1.79.35-.67,0-1.29-.12-1.87-.37-.58-.25-1.09-.59-1.52-1.02-.43-.43-.77-.94-1.02-1.51-.25-.57-.38-1.18-.38-1.83,0-.68.12-1.31.38-1.89.26-.59.6-1.09,1.03-1.52.43-.43.94-.76,1.51-1.01.57-.25,1.18-.38,1.83-.38s1.24.11,1.81.35c.57.23,1.07.56,1.51.98.44.42.78.92,1.05,1.5.26.58.39,1.21.39,1.9,0,.73-.13,1.39-.39,1.98Z"/>
    <path class="st4" d="M135.27,385.75c-1.93,0-3.49-1.56-3.5-3.49,0-1.93,1.55-3.51,3.48-3.51l165.38-.71h.02c1.93,0,3.49,1.56,3.5,3.49,0,1.93-1.55,3.51-3.48,3.51l-165.38.71h-.02Z"/>
    <path class="st4" d="M135.31,395.99c-1.93,0-3.49-1.56-3.5-3.49,0-1.93,1.55-3.51,3.48-3.51l165.38-.71h.02c1.93,0,3.49,1.56,3.5,3.49,0,1.93-1.55,3.51-3.48,3.51l-165.38.71h-.02Z"/>
    <path class="st4" d="M135.35,406.23c-1.93,0-3.49-1.56-3.5-3.49,0-1.93,1.55-3.51,3.48-3.51l165.38-.71h.02c1.93,0,3.49,1.56,3.5,3.49,0,1.93-1.55,3.51-3.48,3.51l-165.38.71h-.02Z"/>
    <path class="st4" d="M350.77,373.32h0c-10.08.04-18.22,8.25-18.17,18.33h0c.04,10.08,8.25,18.22,18.33,18.17h0c10.08-.04,18.22-8.25,18.17-18.33h0c-.04-10.08-8.25-18.22-18.33-18.17ZM354.84,396.17h-2.14s-.02-4.4-.02-4.4c0-.18-.01-.43-.04-.76-.02-.32-.09-.64-.21-.95-.11-.31-.29-.58-.53-.81-.24-.23-.59-.34-1.04-.34-.19,0-.44.06-.73.17-.29.11-.54.32-.73.62-.1.14-.17.3-.22.48-.05.18-.09.37-.11.56-.02.2-.03.4-.04.6,0,.2,0,.4,0,.6l.02,4.25h-2.14s-.04-8.93-.04-8.93h1.98s0,.76,0,.76c.09-.09.2-.19.34-.32.14-.12.31-.24.51-.36s.43-.21.69-.29c.26-.08.57-.12.91-.13.19,0,.41.02.64.06.24.04.48.11.72.21.24.1.48.23.71.38.23.16.44.34.62.57.2.25.36.52.48.81.11.3.2.59.25.88.05.29.08.57.09.83.01.26.02.48.02.65l.02,4.83Z"/>
    <path class="st4" d="M248.98,191.35c-22.38,0-43.45-8.67-59.35-24.44-15.99-15.86-24.85-36.99-24.95-59.51-.2-46.49,37.46-84.47,83.95-84.67.12,0,.25,0,.37,0,22.38,0,43.45,8.67,59.35,24.44,15.99,15.86,24.85,36.99,24.95,59.51.1,22.52-8.58,43.73-24.44,59.72-15.85,15.99-36.99,24.85-59.51,24.95h0c-.12,0-.25,0-.37,0ZM249.01,29.73c-.11,0-.23,0-.34,0-42.63.18-77.16,35.01-76.98,77.64.09,20.65,8.21,40.03,22.88,54.57,14.58,14.46,33.9,22.41,54.42,22.41.11,0,.23,0,.34,0h0c20.65-.09,40.03-8.21,54.57-22.88,14.54-14.67,22.5-34.11,22.41-54.76-.09-20.65-8.21-40.03-22.88-54.57-14.58-14.46-33.9-22.41-54.42-22.41Z"/>
    <path class="st4" d="M230.28,114.44c-1.99,0-3.62-1.62-3.63-3.61,0-2,1.61-3.63,3.61-3.64h.02c.96,0,1.87.37,2.55,1.05.69.68,1.07,1.59,1.07,2.56,0,2-1.61,3.63-3.61,3.64h-.02ZM230.27,109.44c-.76,0-1.37.62-1.37,1.38,0,.36.15.71.41.97.26.25.61.4.97.4h0c.76,0,1.37-.62,1.37-1.38,0-.76-.62-1.37-1.37-1.37h0v2.5s0-2.5,0-2.5Z"/>
    <path class="st4" d="M267.15,114.28c-.96,0-1.87-.37-2.55-1.05-.69-.68-1.07-1.59-1.07-2.56,0-2,1.61-3.63,3.61-3.64h.02c.96,0,1.87.37,2.55,1.05.69.68,1.07,1.59,1.07,2.56,0,.97-.37,1.88-1.05,2.57-.68.69-1.59,1.07-2.56,1.07h-.02ZM267.16,109.28h0c-.36,0-.71.15-.97.41-.26.26-.4.61-.4.98,0,.36.15.71.41.97.26.25.61.4.97.4h0c.76,0,1.37-.62,1.37-1.38,0-.36-.15-.72-.41-.97-.26-.25-.61-.4-.97-.4Z"/>
    <rect class="st4" x="263.79" y="99.6" width="14.48" height="5" transform="translate(-.44 1.17) rotate(-.25)"/>
    <rect class="st4" x="219.21" y="99.79" width="14.42" height="5" transform="translate(-.44 .97) rotate(-.25)"/>
    <rect class="st4" x="236.2" y="137.35" width="24.53" height="5" transform="translate(-.6 1.07) rotate(-.25)"/>
    <path class="st4" d="M249.59,151.3c-4.02,0-7.81-1.56-10.67-4.39-2.87-2.85-4.47-6.65-4.48-10.7l-.03-6.04,30.3-.13.03,6.04c.02,4.05-1.54,7.86-4.39,10.73s-6.65,4.47-10.7,4.48h-.07ZM239.43,135.16v1.04c.02,2.71,1.08,5.26,3.01,7.17,1.92,1.9,4.45,2.94,7.15,2.94h.05c2.71-.01,5.26-1.08,7.17-3s2.95-4.48,2.94-7.19v-1.04s-20.31.09-20.31.09Z"/>
    <polygon class="st4" points="253.75 188.23 252.44 178.83 247.1 178.85 245.91 187.97 240.96 187.32 242.7 173.87 256.8 173.81 258.7 187.55 253.75 188.23"/>
    <path class="st4" d="M244.9,178.86c-1.09,0-2.05-.71-2.38-1.75l-3.69-11.63-4.49,5.4c-.51.61-1.28.95-2.07.9-.79-.05-1.52-.47-1.95-1.14l-16.44-25.52c-.75-1.16-.41-2.71.75-3.46,1.16-.75,2.71-.41,3.46.75l14.6,22.66,5.23-6.3c.58-.7,1.51-1.03,2.4-.86.9.17,1.63.83,1.9,1.7l4.51,14.24,6.04-.03,4.39-14.28c.26-.84.94-1.49,1.8-1.69.86-.21,1.76.05,2.38.67l6.32,6.42,11.53-22.03c.64-1.22,2.15-1.7,3.37-1.06,1.22.64,1.7,2.15,1.06,3.37l-13.12,25.07c-.37.71-1.06,1.2-1.85,1.31-.79.12-1.59-.15-2.15-.72l-5.79-5.88-3.7,12.04c-.32,1.05-1.29,1.76-2.38,1.77l-9.72.04h-.01Z"/>
    <path class="st4" d="M105.93,232.77c-1.93,0-3.49-1.56-3.5-3.49,0-1.93,1.55-3.51,3.48-3.51l288.69-1.24h.02c1.93,0,3.49,1.56,3.5,3.49,0,1.93-1.55,3.51-3.48,3.51l-288.69,1.24h-.02Z"/>
    <path class="st4" d="M188.86,205.1c-1.93,0-3.49-1.56-3.5-3.49,0-1.93,1.55-3.51,3.48-3.51l121.09-.52h.02c1.93,0,3.49,1.56,3.5,3.49,0,1.93-1.55,3.51-3.48,3.51l-121.09.52h-.02Z"/>
    <path class="st4" d="M188.9,215.33c-1.93,0-3.49-1.56-3.5-3.49,0-1.93,1.55-3.51,3.48-3.51l121.09-.52h.02c1.93,0,3.49,1.56,3.5,3.49,0,1.93-1.55,3.51-3.48,3.51l-121.09.52h-.02Z"/>
    <path class="st4" d="M195.97,169.25l-.02-5.67c-.05-11.94,9.62-21.7,21.57-21.75l.02,5c-9.19.04-16.63,7.54-16.59,16.73l.02,5.67-5,.02Z"/>
    <path class="st4" d="M298.16,168.82l-.02-5.67c-.04-9.16-7.51-16.59-16.66-16.59h-2.42s-.02-4.99-.02-4.99h2.35s.06-.01.09-.01c11.9,0,21.61,9.65,21.66,21.57l.02,5.67-5,.02Z"/>
    <path class="st4" d="M248.84,126.59c-2.13,0-4.16-.91-5.58-2.51-1.42-1.6-2.08-3.74-1.82-5.87l4.96.62c-.09.71.12,1.4.6,1.93.48.54,1.1.84,1.85.83.72,0,1.38-.3,1.86-.83s.71-1.21.64-1.93l4.98-.46c.19,2.09-.51,4.19-1.92,5.75s-3.43,2.46-5.54,2.47h-.03Z"/>
    <path class="st4" d="M209.96,120.97c-6.91,0-12.52-5.62-12.52-12.52s5.62-12.52,12.52-12.52v5c-4.15,0-7.52,3.38-7.52,7.52s3.38,7.52,7.52,7.52v5Z"/>
    <path class="st4" d="M288.58,120.97v-5c4.15,0,7.52-3.38,7.52-7.52s-3.38-7.52-7.52-7.52v-5c6.91,0,12.52,5.62,12.52,12.52s-5.62,12.52-12.52,12.52Z"/>
    <path class="st4" d="M261.54,62.72c-1.38,0-2.5-1.12-2.5-2.5,0-5.68-2.86-10.92-7.56-14.01-2.68,1.49-9.27,4.46-22.85,7.17-1.35.28-2.67-.61-2.94-1.96-.27-1.35.61-2.67,1.96-2.94,16.93-3.38,22.26-7.16,22.31-7.2.78-.57,1.84-.65,2.69-.19,7.03,3.82,11.39,11.15,11.39,19.13,0,1.38-1.12,2.5-2.5,2.5Z"/>
    <path class="st4" d="M248.13,97.9c-.16,0-.33-.02-.49-.05-4.91-.98-9.11-3.07-11.83-5.89-.96-.99-.93-2.58.06-3.54.99-.96,2.58-.93,3.53.06,1.91,1.98,5.07,3.55,8.73,4.36,3.71-.82,6.9-2.42,8.8-4.44.95-1,2.53-1.05,3.53-.1,1,.95,1.05,2.53.1,3.53-2.72,2.88-6.96,5.02-11.95,6.01-.16.03-.33.05-.49.05Z"/>
    <path class="st4" d="M237.62,92.79h-27.66c-1.38,0-2.5-1.12-2.5-2.5s1.12-2.5,2.5-2.5h27.66c1.38,0,2.5,1.12,2.5,2.5s-1.12,2.5-2.5,2.5Z"/>
    <rect class="st4" x="271.16" y="75.28" width="5" height="29.84" transform="translate(181.91 363.34) rotate(-89.68)"/>
    <path class="st4" d="M209.98,102.93c-1.38,0-2.5-1.12-2.5-2.5v-25.5c0-12.24,8.22-23.09,19.98-26.41,1.33-.37,2.71.4,3.08,1.73.37,1.33-.4,2.71-1.73,3.08-9.62,2.71-16.34,11.59-16.34,21.59v25.5c0,1.38-1.12,2.5-2.5,2.5Z"/>
    <path class="st4" d="M288.58,97.9c-1.38,0-2.5-1.12-2.5-2.5v-18.86c0-10.99-7.38-20.63-17.8-23.6l-4.54,8.46c-.65,1.22-2.17,1.67-3.38,1.02-1.22-.65-1.67-2.17-1.02-3.38l5.45-10.17c.52-.97,1.62-1.49,2.7-1.27,13.67,2.8,23.59,14.97,23.59,28.94v18.86c0,1.38-1.12,2.5-2.5,2.5Z"/>
  </g>
</svg>